<mxfile host="Electron" agent="Mozilla/5.0 (X11; Linux x86_64) AppleWebKit/537.36 (KHTML, like Gecko) draw.io/26.1.1 Chrome/132.0.6834.210 Electron/34.5.0 Safari/537.36" version="26.1.1">
  <diagram name="Page-1" id="ofEn67mlRVoatp77rpdD">
    <mxGraphModel dx="5926" dy="3417" grid="1" gridSize="10" guides="1" tooltips="1" connect="1" arrows="1" fold="1" page="1" pageScale="1" pageWidth="850" pageHeight="1100" math="0" shadow="0">
      <root>
        <mxCell id="0" />
        <mxCell id="1" parent="0" />
        <UserObject label="" mermaidData="{&#xa;  &quot;data&quot;: &quot;graph TD\n    subgraph \&quot;Client Devices\&quot;\n        A[\&quot;Windows Client\&quot;]\n        A1[\&quot;Windows Integration Layer\&quot;]\n        \n        B[\&quot;macOS Client\&quot;]\n        B1[\&quot;macOS Integration Layer\&quot;]\n        \n        C[\&quot;Linux Client\&quot;]\n        C1[\&quot;Linux Integration Layer\&quot;]\n        \n        D[\&quot;Web Client\&quot;]\n        D1[\&quot;Web Integration Layer\&quot;]\n        \n        E[\&quot;Mobile Client\&quot;]\n        E1[\&quot;Mobile Integration Layer\&quot;]\n    end\n    \n    subgraph \&quot;Shared Components\&quot;\n        F[\&quot;Core Engine\&quot;]\n        F1[\&quot;Local Language Model\&quot;]\n        F2[\&quot;Context Manager\&quot;]\n        F3[\&quot;Security Layer\&quot;]\n    end\n    \n    subgraph \&quot;Cloud Services\&quot;\n        G[\&quot;Cloud Sync Service\&quot;]\n        G1[\&quot;User Settings Sync\&quot;]\n        G2[\&quot;Context Sync\&quot;]\n        \n        H[\&quot;MCP Server\&quot;]\n        H1[\&quot;Advanced AI Capabilities\&quot;]\n        \n        I[\&quot;Extension Marketplace\&quot;]\n        I1[\&quot;Cross-Platform Extensions\&quot;]\n        I2[\&quot;Platform-Specific Extensions\&quot;]\n    end\n    \n    subgraph \&quot;Enterprise Services\&quot;\n        J[\&quot;Enterprise Management Console\&quot;]\n        J1[\&quot;Cross-Platform Configuration\&quot;]\n        J2[\&quot;License Management\&quot;]\n        J3[\&quot;Analytics Dashboard\&quot;]\n        J4[\&quot;Company Knowledge Base\&quot;]\n    end\n    \n    A --&gt; A1\n    B --&gt; B1\n    C --&gt; C1\n    D --&gt; D1\n    E --&gt; E1\n    \n    A --&gt; F\n    B --&gt; F\n    C --&gt; F\n    D --&gt; F\n    E --&gt; F\n    \n    A &lt;--&gt; G\n    B &lt;--&gt; G\n    C &lt;--&gt; G\n    D &lt;--&gt; G\n    E &lt;--&gt; G\n    \n    F &lt;--&gt; H\n    F &lt;--&gt; I\n    \n    G &lt;--&gt; J\n    I &lt;--&gt; J\n&quot;&#xa;}" id="-tOJpTV9zXSo3GfZbMSQ-1">
          <mxCell style="shape=image;noLabel=1;verticalAlign=top;imageAspect=1;image=data:image/svg+xml,PHN2ZyBhcmlhLXJvbGVkZXNjcmlwdGlvbj0iZmxvd2NoYXJ0LXYyIiByb2xlPSJncmFwaGljcy1kb2N1bWVudCBkb2N1bWVudCIgdmlld0JveD0iMCAwIDI5NTguNDY0ODQzNzUgNjA1IiBzdHlsZT0ibWF4LXdpZHRoOiAyOTU4LjQ2NDg0Mzc1cHg7IiBjbGFzcz0iZmxvd2NoYXJ0IiB4bWxucz0iaHR0cDovL3d3dy53My5vcmcvMjAwMC9zdmciIHdpZHRoPSIxMDAlIiBpZD0iZ2VNZXJtYWlkT3V0cHV0LTE3NDU1MTYzMzY1NDYiPjxzdHlsZT4jZ2VNZXJtYWlkT3V0cHV0LTE3NDU1MTYzMzY1NDZ7Zm9udC1mYW1pbHk6InRyZWJ1Y2hldCBtcyIsdmVyZGFuYSxhcmlhbCxzYW5zLXNlcmlmO2ZvbnQtc2l6ZToxNnB4O2ZpbGw6I2NjYzt9I2dlTWVybWFpZE91dHB1dC0xNzQ1NTE2MzM2NTQ2IC5lcnJvci1pY29ue2ZpbGw6I2E0NDE0MTt9I2dlTWVybWFpZE91dHB1dC0xNzQ1NTE2MzM2NTQ2IC5lcnJvci10ZXh0e2ZpbGw6I2RkZDtzdHJva2U6I2RkZDt9I2dlTWVybWFpZE91dHB1dC0xNzQ1NTE2MzM2NTQ2IC5lZGdlLXRoaWNrbmVzcy1ub3JtYWx7c3Ryb2tlLXdpZHRoOjFweDt9I2dlTWVybWFpZE91dHB1dC0xNzQ1NTE2MzM2NTQ2IC5lZGdlLXRoaWNrbmVzcy10aGlja3tzdHJva2Utd2lkdGg6My41cHg7fSNnZU1lcm1haWRPdXRwdXQtMTc0NTUxNjMzNjU0NiAuZWRnZS1wYXR0ZXJuLXNvbGlke3N0cm9rZS1kYXNoYXJyYXk6MDt9I2dlTWVybWFpZE91dHB1dC0xNzQ1NTE2MzM2NTQ2IC5lZGdlLXRoaWNrbmVzcy1pbnZpc2libGV7c3Ryb2tlLXdpZHRoOjA7ZmlsbDpub25lO30jZ2VNZXJtYWlkT3V0cHV0LTE3NDU1MTYzMzY1NDYgLmVkZ2UtcGF0dGVybi1kYXNoZWR7c3Ryb2tlLWRhc2hhcnJheTozO30jZ2VNZXJtYWlkT3V0cHV0LTE3NDU1MTYzMzY1NDYgLmVkZ2UtcGF0dGVybi1kb3R0ZWR7c3Ryb2tlLWRhc2hhcnJheToyO30jZ2VNZXJtYWlkT3V0cHV0LTE3NDU1MTYzMzY1NDYgLm1hcmtlcntmaWxsOmxpZ2h0Z3JleTtzdHJva2U6bGlnaHRncmV5O30jZ2VNZXJtYWlkT3V0cHV0LTE3NDU1MTYzMzY1NDYgLm1hcmtlci5jcm9zc3tzdHJva2U6bGlnaHRncmV5O30jZ2VNZXJtYWlkT3V0cHV0LTE3NDU1MTYzMzY1NDYgc3Zne2ZvbnQtZmFtaWx5OiJ0cmVidWNoZXQgbXMiLHZlcmRhbmEsYXJpYWwsc2Fucy1zZXJpZjtmb250LXNpemU6MTZweDt9I2dlTWVybWFpZE91dHB1dC0xNzQ1NTE2MzM2NTQ2IHB7bWFyZ2luOjA7fSNnZU1lcm1haWRPdXRwdXQtMTc0NTUxNjMzNjU0NiAubGFiZWx7Zm9udC1mYW1pbHk6InRyZWJ1Y2hldCBtcyIsdmVyZGFuYSxhcmlhbCxzYW5zLXNlcmlmO2NvbG9yOiNjY2M7fSNnZU1lcm1haWRPdXRwdXQtMTc0NTUxNjMzNjU0NiAuY2x1c3Rlci1sYWJlbCB0ZXh0e2ZpbGw6I0Y5RkZGRTt9I2dlTWVybWFpZE91dHB1dC0xNzQ1NTE2MzM2NTQ2IC5jbHVzdGVyLWxhYmVsIHNwYW57Y29sb3I6I0Y5RkZGRTt9I2dlTWVybWFpZE91dHB1dC0xNzQ1NTE2MzM2NTQ2IC5jbHVzdGVyLWxhYmVsIHNwYW4gcHtiYWNrZ3JvdW5kLWNvbG9yOnRyYW5zcGFyZW50O30jZ2VNZXJtYWlkT3V0cHV0LTE3NDU1MTYzMzY1NDYgLmxhYmVsIHRleHQsI2dlTWVybWFpZE91dHB1dC0xNzQ1NTE2MzM2NTQ2IHNwYW57ZmlsbDojY2NjO2NvbG9yOiNjY2M7fSNnZU1lcm1haWRPdXRwdXQtMTc0NTUxNjMzNjU0NiAubm9kZSByZWN0LCNnZU1lcm1haWRPdXRwdXQtMTc0NTUxNjMzNjU0NiAubm9kZSBjaXJjbGUsI2dlTWVybWFpZE91dHB1dC0xNzQ1NTE2MzM2NTQ2IC5ub2RlIGVsbGlwc2UsI2dlTWVybWFpZE91dHB1dC0xNzQ1NTE2MzM2NTQ2IC5ub2RlIHBvbHlnb24sI2dlTWVybWFpZE91dHB1dC0xNzQ1NTE2MzM2NTQ2IC5ub2RlIHBhdGh7ZmlsbDojMWYyMDIwO3N0cm9rZTojY2NjO3N0cm9rZS13aWR0aDoxcHg7fSNnZU1lcm1haWRPdXRwdXQtMTc0NTUxNjMzNjU0NiAucm91Z2gtbm9kZSAubGFiZWwgdGV4dCwjZ2VNZXJtYWlkT3V0cHV0LTE3NDU1MTYzMzY1NDYgLm5vZGUgLmxhYmVsIHRleHQsI2dlTWVybWFpZE91dHB1dC0xNzQ1NTE2MzM2NTQ2IC5pbWFnZS1zaGFwZSAubGFiZWwsI2dlTWVybWFpZE91dHB1dC0xNzQ1NTE2MzM2NTQ2IC5pY29uLXNoYXBlIC5sYWJlbHt0ZXh0LWFuY2hvcjptaWRkbGU7fSNnZU1lcm1haWRPdXRwdXQtMTc0NTUxNjMzNjU0NiAubm9kZSAua2F0ZXggcGF0aHtmaWxsOiMwMDA7c3Ryb2tlOiMwMDA7c3Ryb2tlLXdpZHRoOjFweDt9I2dlTWVybWFpZE91dHB1dC0xNzQ1NTE2MzM2NTQ2IC5yb3VnaC1ub2RlIC5sYWJlbCwjZ2VNZXJtYWlkT3V0cHV0LTE3NDU1MTYzMzY1NDYgLm5vZGUgLmxhYmVsLCNnZU1lcm1haWRPdXRwdXQtMTc0NTUxNjMzNjU0NiAuaW1hZ2Utc2hhcGUgLmxhYmVsLCNnZU1lcm1haWRPdXRwdXQtMTc0NTUxNjMzNjU0NiAuaWNvbi1zaGFwZSAubGFiZWx7dGV4dC1hbGlnbjpjZW50ZXI7fSNnZU1lcm1haWRPdXRwdXQtMTc0NTUxNjMzNjU0NiAubm9kZS5jbGlja2FibGV7Y3Vyc29yOnBvaW50ZXI7fSNnZU1lcm1haWRPdXRwdXQtMTc0NTUxNjMzNjU0NiAucm9vdCAuYW5jaG9yIHBhdGh7ZmlsbDpsaWdodGdyZXkhaW1wb3J0YW50O3N0cm9rZS13aWR0aDowO3N0cm9rZTpsaWdodGdyZXk7fSNnZU1lcm1haWRPdXRwdXQtMTc0NTUxNjMzNjU0NiAuYXJyb3doZWFkUGF0aHtmaWxsOmxpZ2h0Z3JleTt9I2dlTWVybWFpZE91dHB1dC0xNzQ1NTE2MzM2NTQ2IC5lZGdlUGF0aCAucGF0aHtzdHJva2U6bGlnaHRncmV5O3N0cm9rZS13aWR0aDoyLjBweDt9I2dlTWVybWFpZE91dHB1dC0xNzQ1NTE2MzM2NTQ2IC5mbG93Y2hhcnQtbGlua3tzdHJva2U6bGlnaHRncmV5O2ZpbGw6bm9uZTt9I2dlTWVybWFpZE91dHB1dC0xNzQ1NTE2MzM2NTQ2IC5lZGdlTGFiZWx7YmFja2dyb3VuZC1jb2xvcjpoc2woMCwgMCUsIDM0LjQxMTc2NDcwNTklKTt0ZXh0LWFsaWduOmNlbnRlcjt9I2dlTWVybWFpZE91dHB1dC0xNzQ1NTE2MzM2NTQ2IC5lZGdlTGFiZWwgcHtiYWNrZ3JvdW5kLWNvbG9yOmhzbCgwLCAwJSwgMzQuNDExNzY0NzA1OSUpO30jZ2VNZXJtYWlkT3V0cHV0LTE3NDU1MTYzMzY1NDYgLmVkZ2VMYWJlbCByZWN0e29wYWNpdHk6MC41O2JhY2tncm91bmQtY29sb3I6aHNsKDAsIDAlLCAzNC40MTE3NjQ3MDU5JSk7ZmlsbDpoc2woMCwgMCUsIDM0LjQxMTc2NDcwNTklKTt9I2dlTWVybWFpZE91dHB1dC0xNzQ1NTE2MzM2NTQ2IC5sYWJlbEJrZ3tiYWNrZ3JvdW5kLWNvbG9yOnJnYmEoODcuNzUsIDg3Ljc1LCA4Ny43NSwgMC41KTt9I2dlTWVybWFpZE91dHB1dC0xNzQ1NTE2MzM2NTQ2IC5jbHVzdGVyIHJlY3R7ZmlsbDpoc2woMTgwLCAxLjU4NzMwMTU4NzMlLCAyOC4zNTI5NDExNzY1JSk7c3Ryb2tlOnJnYmEoMjU1LCAyNTUsIDI1NSwgMC4yNSk7c3Ryb2tlLXdpZHRoOjFweDt9I2dlTWVybWFpZE91dHB1dC0xNzQ1NTE2MzM2NTQ2IC5jbHVzdGVyIHRleHR7ZmlsbDojRjlGRkZFO30jZ2VNZXJtYWlkT3V0cHV0LTE3NDU1MTYzMzY1NDYgLmNsdXN0ZXIgc3Bhbntjb2xvcjojRjlGRkZFO30jZ2VNZXJtYWlkT3V0cHV0LTE3NDU1MTYzMzY1NDYgZGl2Lm1lcm1haWRUb29sdGlwe3Bvc2l0aW9uOmFic29sdXRlO3RleHQtYWxpZ246Y2VudGVyO21heC13aWR0aDoyMDBweDtwYWRkaW5nOjJweDtmb250LWZhbWlseToidHJlYnVjaGV0IG1zIix2ZXJkYW5hLGFyaWFsLHNhbnMtc2VyaWY7Zm9udC1zaXplOjEycHg7YmFja2dyb3VuZDpoc2woMjAsIDEuNTg3MzAxNTg3MyUsIDEyLjM1Mjk0MTE3NjUlKTtib3JkZXI6MXB4IHNvbGlkIHJnYmEoMjU1LCAyNTUsIDI1NSwgMC4yNSk7Ym9yZGVyLXJhZGl1czoycHg7cG9pbnRlci1ldmVudHM6bm9uZTt6LWluZGV4OjEwMDt9I2dlTWVybWFpZE91dHB1dC0xNzQ1NTE2MzM2NTQ2IC5mbG93Y2hhcnRUaXRsZVRleHR7dGV4dC1hbmNob3I6bWlkZGxlO2ZvbnQtc2l6ZToxOHB4O2ZpbGw6I2NjYzt9I2dlTWVybWFpZE91dHB1dC0xNzQ1NTE2MzM2NTQ2IHJlY3QudGV4dHtmaWxsOm5vbmU7c3Ryb2tlLXdpZHRoOjA7fSNnZU1lcm1haWRPdXRwdXQtMTc0NTUxNjMzNjU0NiAuaWNvbi1zaGFwZSwjZ2VNZXJtYWlkT3V0cHV0LTE3NDU1MTYzMzY1NDYgLmltYWdlLXNoYXBle2JhY2tncm91bmQtY29sb3I6aHNsKDAsIDAlLCAzNC40MTE3NjQ3MDU5JSk7dGV4dC1hbGlnbjpjZW50ZXI7fSNnZU1lcm1haWRPdXRwdXQtMTc0NTUxNjMzNjU0NiAuaWNvbi1zaGFwZSBwLCNnZU1lcm1haWRPdXRwdXQtMTc0NTUxNjMzNjU0NiAuaW1hZ2Utc2hhcGUgcHtiYWNrZ3JvdW5kLWNvbG9yOmhzbCgwLCAwJSwgMzQuNDExNzY0NzA1OSUpO3BhZGRpbmc6MnB4O30jZ2VNZXJtYWlkT3V0cHV0LTE3NDU1MTYzMzY1NDYgLmljb24tc2hhcGUgcmVjdCwjZ2VNZXJtYWlkT3V0cHV0LTE3NDU1MTYzMzY1NDYgLmltYWdlLXNoYXBlIHJlY3R7b3BhY2l0eTowLjU7YmFja2dyb3VuZC1jb2xvcjpoc2woMCwgMCUsIDM0LjQxMTc2NDcwNTklKTtmaWxsOmhzbCgwLCAwJSwgMzQuNDExNzY0NzA1OSUpO30jZ2VNZXJtYWlkT3V0cHV0LTE3NDU1MTYzMzY1NDYgOnJvb3R7LS1tZXJtYWlkLWZvbnQtZmFtaWx5OiJ0cmVidWNoZXQgbXMiLHZlcmRhbmEsYXJpYWwsc2Fucy1zZXJpZjt9PC9zdHlsZT48Zz48bWFya2VyIG9yaWVudD0iYXV0byIgbWFya2VySGVpZ2h0PSI4IiBtYXJrZXJXaWR0aD0iOCIgbWFya2VyVW5pdHM9InVzZXJTcGFjZU9uVXNlIiByZWZZPSI1IiByZWZYPSI1IiB2aWV3Qm94PSIwIDAgMTAgMTAiIGNsYXNzPSJtYXJrZXIgZmxvd2NoYXJ0LXYyIiBpZD0iZ2VNZXJtYWlkT3V0cHV0LTE3NDU1MTYzMzY1NDZfZmxvd2NoYXJ0LXYyLXBvaW50RW5kIj48cGF0aCBzdHlsZT0ic3Ryb2tlLXdpZHRoOiAxOyBzdHJva2UtZGFzaGFycmF5OiAxLCAwOyIgY2xhc3M9ImFycm93TWFya2VyUGF0aCIgZD0iTSAwIDAgTCAxMCA1IEwgMCAxMCB6Ij48L3BhdGg+PC9tYXJrZXI+PG1hcmtlciBvcmllbnQ9ImF1dG8iIG1hcmtlckhlaWdodD0iOCIgbWFya2VyV2lkdGg9IjgiIG1hcmtlclVuaXRzPSJ1c2VyU3BhY2VPblVzZSIgcmVmWT0iNSIgcmVmWD0iNC41IiB2aWV3Qm94PSIwIDAgMTAgMTAiIGNsYXNzPSJtYXJrZXIgZmxvd2NoYXJ0LXYyIiBpZD0iZ2VNZXJtYWlkT3V0cHV0LTE3NDU1MTYzMzY1NDZfZmxvd2NoYXJ0LXYyLXBvaW50U3RhcnQiPjxwYXRoIHN0eWxlPSJzdHJva2Utd2lkdGg6IDE7IHN0cm9rZS1kYXNoYXJyYXk6IDEsIDA7IiBjbGFzcz0iYXJyb3dNYXJrZXJQYXRoIiBkPSJNIDAgNSBMIDEwIDEwIEwgMTAgMCB6Ij48L3BhdGg+PC9tYXJrZXI+PG1hcmtlciBvcmllbnQ9ImF1dG8iIG1hcmtlckhlaWdodD0iMTEiIG1hcmtlcldpZHRoPSIxMSIgbWFya2VyVW5pdHM9InVzZXJTcGFjZU9uVXNlIiByZWZZPSI1IiByZWZYPSIxMSIgdmlld0JveD0iMCAwIDEwIDEwIiBjbGFzcz0ibWFya2VyIGZsb3djaGFydC12MiIgaWQ9ImdlTWVybWFpZE91dHB1dC0xNzQ1NTE2MzM2NTQ2X2Zsb3djaGFydC12Mi1jaXJjbGVFbmQiPjxjaXJjbGUgc3R5bGU9InN0cm9rZS13aWR0aDogMTsgc3Ryb2tlLWRhc2hhcnJheTogMSwgMDsiIGNsYXNzPSJhcnJvd01hcmtlclBhdGgiIHI9IjUiIGN5PSI1IiBjeD0iNSI+PC9jaXJjbGU+PC9tYXJrZXI+PG1hcmtlciBvcmllbnQ9ImF1dG8iIG1hcmtlckhlaWdodD0iMTEiIG1hcmtlcldpZHRoPSIxMSIgbWFya2VyVW5pdHM9InVzZXJTcGFjZU9uVXNlIiByZWZZPSI1IiByZWZYPSItMSIgdmlld0JveD0iMCAwIDEwIDEwIiBjbGFzcz0ibWFya2VyIGZsb3djaGFydC12MiIgaWQ9ImdlTWVybWFpZE91dHB1dC0xNzQ1NTE2MzM2NTQ2X2Zsb3djaGFydC12Mi1jaXJjbGVTdGFydCI+PGNpcmNsZSBzdHlsZT0ic3Ryb2tlLXdpZHRoOiAxOyBzdHJva2UtZGFzaGFycmF5OiAxLCAwOyIgY2xhc3M9ImFycm93TWFya2VyUGF0aCIgcj0iNSIgY3k9IjUiIGN4PSI1Ij48L2NpcmNsZT48L21hcmtlcj48bWFya2VyIG9yaWVudD0iYXV0byIgbWFya2VySGVpZ2h0PSIxMSIgbWFya2VyV2lkdGg9IjExIiBtYXJrZXJVbml0cz0idXNlclNwYWNlT25Vc2UiIHJlZlk9IjUuMiIgcmVmWD0iMTIiIHZpZXdCb3g9IjAgMCAxMSAxMSIgY2xhc3M9Im1hcmtlciBjcm9zcyBmbG93Y2hhcnQtdjIiIGlkPSJnZU1lcm1haWRPdXRwdXQtMTc0NTUxNjMzNjU0Nl9mbG93Y2hhcnQtdjItY3Jvc3NFbmQiPjxwYXRoIHN0eWxlPSJzdHJva2Utd2lkdGg6IDI7IHN0cm9rZS1kYXNoYXJyYXk6IDEsIDA7IiBjbGFzcz0iYXJyb3dNYXJrZXJQYXRoIiBkPSJNIDEsMSBsIDksOSBNIDEwLDEgbCAtOSw5Ij48L3BhdGg+PC9tYXJrZXI+PG1hcmtlciBvcmllbnQ9ImF1dG8iIG1hcmtlckhlaWdodD0iMTEiIG1hcmtlcldpZHRoPSIxMSIgbWFya2VyVW5pdHM9InVzZXJTcGFjZU9uVXNlIiByZWZZPSI1LjIiIHJlZlg9Ii0xIiB2aWV3Qm94PSIwIDAgMTEgMTEiIGNsYXNzPSJtYXJrZXIgY3Jvc3MgZmxvd2NoYXJ0LXYyIiBpZD0iZ2VNZXJtYWlkT3V0cHV0LTE3NDU1MTYzMzY1NDZfZmxvd2NoYXJ0LXYyLWNyb3NzU3RhcnQiPjxwYXRoIHN0eWxlPSJzdHJva2Utd2lkdGg6IDI7IHN0cm9rZS1kYXNoYXJyYXk6IDEsIDA7IiBjbGFzcz0iYXJyb3dNYXJrZXJQYXRoIiBkPSJNIDEsMSBsIDksOSBNIDEwLDEgbCAtOSw5Ij48L3BhdGg+PC9tYXJrZXI+PGcgY2xhc3M9InJvb3QiPjxnIGNsYXNzPSJjbHVzdGVycyI+PGcgZGF0YS1sb29rPSJjbGFzc2ljIiBpZD0ic3ViR3JhcGgzIiBjbGFzcz0iY2x1c3RlciI+PHJlY3QgaGVpZ2h0PSIxMjgiIHdpZHRoPSIyMjY1LjQ1NzAzMTI1IiB5PSI0NjkiIHg9IjY4NS4wMDc4MTI1IiBzdHlsZT0iIj48L3JlY3Q+PGcgdHJhbnNmb3JtPSJ0cmFuc2xhdGUoMTc0OS40OTQxNDA2MjUsIDQ2OSkiIGNsYXNzPSJjbHVzdGVyLWxhYmVsIj48Zz48cmVjdCBzdHlsZT0ic3Ryb2tlOiBub25lIiBjbGFzcz0iYmFja2dyb3VuZCI+PC9yZWN0Pjx0ZXh0IHN0eWxlPSIiIHk9Ii0xMC4xIj48dHNwYW4gZHk9IjEuMWVtIiB5PSItMC4xZW0iIHg9IjAiIGNsYXNzPSJ0ZXh0LW91dGVyLXRzcGFuIj48dHNwYW4gZm9udC13ZWlnaHQ9Im5vcm1hbCIgY2xhc3M9InRleHQtaW5uZXItdHNwYW4iIGZvbnQtc3R5bGU9Im5vcm1hbCI+RW50ZXJwcmlzZTwvdHNwYW4+PHRzcGFuIGZvbnQtd2VpZ2h0PSJub3JtYWwiIGNsYXNzPSJ0ZXh0LWlubmVyLXRzcGFuIiBmb250LXN0eWxlPSJub3JtYWwiPiBTZXJ2aWNlczwvdHNwYW4+PC90c3Bhbj48L3RleHQ+PC9nPjwvZz48L2c+PGcgZGF0YS1sb29rPSJjbGFzc2ljIiBpZD0ic3ViR3JhcGgyIiBjbGFzcz0iY2x1c3RlciI+PHJlY3QgaGVpZ2h0PSIxMjgiIHdpZHRoPSIyOTA4Ljc2NTYyNSIgeT0iMjkxIiB4PSI4IiBzdHlsZT0iIj48L3JlY3Q+PGcgdHJhbnNmb3JtPSJ0cmFuc2xhdGUoMTQxMC42MjUsIDI5MSkiIGNsYXNzPSJjbHVzdGVyLWxhYmVsIj48Zz48cmVjdCBzdHlsZT0ic3Ryb2tlOiBub25lIiBjbGFzcz0iYmFja2dyb3VuZCI+PC9yZWN0Pjx0ZXh0IHN0eWxlPSIiIHk9Ii0xMC4xIj48dHNwYW4gZHk9IjEuMWVtIiB5PSItMC4xZW0iIHg9IjAiIGNsYXNzPSJ0ZXh0LW91dGVyLXRzcGFuIj48dHNwYW4gZm9udC13ZWlnaHQ9Im5vcm1hbCIgY2xhc3M9InRleHQtaW5uZXItdHNwYW4iIGZvbnQtc3R5bGU9Im5vcm1hbCI+Q2xvdWQ8L3RzcGFuPjx0c3BhbiBmb250LXdlaWdodD0ibm9ybWFsIiBjbGFzcz0idGV4dC1pbm5lci10c3BhbiIgZm9udC1zdHlsZT0ibm9ybWFsIj4gU2VydmljZXM8L3RzcGFuPjwvdHNwYW4+PC90ZXh0PjwvZz48L2c+PC9nPjxnIGRhdGEtbG9vaz0iY2xhc3NpYyIgaWQ9InN1YkdyYXBoMSIgY2xhc3M9ImNsdXN0ZXIiPjxyZWN0IGhlaWdodD0iMTA0IiB3aWR0aD0iMTIyOC45MzM1OTM3NSIgeT0iMTM3IiB4PSIzOS4wNzQyMTg3NSIgc3R5bGU9IiI+PC9yZWN0PjxnIHRyYW5zZm9ybT0idHJhbnNsYXRlKDU4Mi43OTEwMTU2MjUsIDEzNykiIGNsYXNzPSJjbHVzdGVyLWxhYmVsIj48Zz48cmVjdCBzdHlsZT0ic3Ryb2tlOiBub25lIiBjbGFzcz0iYmFja2dyb3VuZCI+PC9yZWN0Pjx0ZXh0IHN0eWxlPSIiIHk9Ii0xMC4xIj48dHNwYW4gZHk9IjEuMWVtIiB5PSItMC4xZW0iIHg9IjAiIGNsYXNzPSJ0ZXh0LW91dGVyLXRzcGFuIj48dHNwYW4gZm9udC13ZWlnaHQ9Im5vcm1hbCIgY2xhc3M9InRleHQtaW5uZXItdHNwYW4iIGZvbnQtc3R5bGU9Im5vcm1hbCI+U2hhcmVkPC90c3Bhbj48dHNwYW4gZm9udC13ZWlnaHQ9Im5vcm1hbCIgY2xhc3M9InRleHQtaW5uZXItdHNwYW4iIGZvbnQtc3R5bGU9Im5vcm1hbCI+IENvbXBvbmVudHM8L3RzcGFuPjwvdHNwYW4+PC90ZXh0PjwvZz48L2c+PC9nPjxnIGRhdGEtbG9vaz0iY2xhc3NpYyIgaWQ9InN1YkdyYXBoMCIgY2xhc3M9ImNsdXN0ZXIiPjxyZWN0IGhlaWdodD0iMjMzIiB3aWR0aD0iMTU4My4wNzAzMTI1IiB5PSI4IiB4PSIxMjg4LjAwNzgxMjUiIHN0eWxlPSIiPjwvcmVjdD48ZyB0cmFuc2Zvcm09InRyYW5zbGF0ZSgyMDI4Ljc2MTcxODc1LCA4KSIgY2xhc3M9ImNsdXN0ZXItbGFiZWwiPjxnPjxyZWN0IHN0eWxlPSJzdHJva2U6IG5vbmUiIGNsYXNzPSJiYWNrZ3JvdW5kIj48L3JlY3Q+PHRleHQgc3R5bGU9IiIgeT0iLTEwLjEiPjx0c3BhbiBkeT0iMS4xZW0iIHk9Ii0wLjFlbSIgeD0iMCIgY2xhc3M9InRleHQtb3V0ZXItdHNwYW4iPjx0c3BhbiBmb250LXdlaWdodD0ibm9ybWFsIiBjbGFzcz0idGV4dC1pbm5lci10c3BhbiIgZm9udC1zdHlsZT0ibm9ybWFsIj5DbGllbnQ8L3RzcGFuPjx0c3BhbiBmb250LXdlaWdodD0ibm9ybWFsIiBjbGFzcz0idGV4dC1pbm5lci10c3BhbiIgZm9udC1zdHlsZT0ibm9ybWFsIj4gRGV2aWNlczwvdHNwYW4+PC90c3Bhbj48L3RleHQ+PC9nPjwvZz48L2c+PC9nPjxnIGNsYXNzPSJlZGdlUGF0aHMiPjxwYXRoIG1hcmtlci1lbmQ9InVybCgjZ2VNZXJtYWlkT3V0cHV0LTE3NDU1MTYzMzY1NDZfZmxvd2NoYXJ0LXYyLXBvaW50RW5kKSIgc3R5bGU9IiIgY2xhc3M9ImVkZ2UtdGhpY2tuZXNzLW5vcm1hbCBlZGdlLXBhdHRlcm4tc29saWQgZWRnZS10aGlja25lc3Mtbm9ybWFsIGVkZ2UtcGF0dGVybi1zb2xpZCBmbG93Y2hhcnQtbGluayIgaWQ9IkxfQV9BMV8wIiBkPSJNMTQ4Ni45MzQsODdMMTQ4MC41MDksOTEuMTY3QzE0NzQuMDg0LDk1LjMzMywxNDYxLjIzMywxMDMuNjY3LDE0NTQuODA4LDExMkMxNDQ4LjM4MywxMjAuMzMzLDE0NDguMzgzLDEyOC42NjcsMTQ0OC4zODMsMTM2LjMzM0MxNDQ4LjM4MywxNDQsMTQ0OC4zODMsMTUxLDE0NDguMzgzLDE1NC41TDE0NDguMzgzLDE1OCI+PC9wYXRoPjxwYXRoIG1hcmtlci1lbmQ9InVybCgjZ2VNZXJtYWlkT3V0cHV0LTE3NDU1MTYzMzY1NDZfZmxvd2NoYXJ0LXYyLXBvaW50RW5kKSIgc3R5bGU9IiIgY2xhc3M9ImVkZ2UtdGhpY2tuZXNzLW5vcm1hbCBlZGdlLXBhdHRlcm4tc29saWQgZWRnZS10aGlja25lc3Mtbm9ybWFsIGVkZ2UtcGF0dGVybi1zb2xpZCBmbG93Y2hhcnQtbGluayIgaWQ9IkxfQl9CMV8xIiBkPSJNMTc5OC42ODIsODdMMTc5Mi41NDgsOTEuMTY3QzE3ODYuNDEzLDk1LjMzMywxNzc0LjE0NCwxMDMuNjY3LDE3NjguMDEsMTEyQzE3NjEuODc1LDEyMC4zMzMsMTc2MS44NzUsMTI4LjY2NywxNzYxLjg3NSwxMzYuMzMzQzE3NjEuODc1LDE0NCwxNzYxLjg3NSwxNTEsMTc2MS44NzUsMTU0LjVMMTc2MS44NzUsMTU4Ij48L3BhdGg+PHBhdGggbWFya2VyLWVuZD0idXJsKCNnZU1lcm1haWRPdXRwdXQtMTc0NTUxNjMzNjU0Nl9mbG93Y2hhcnQtdjItcG9pbnRFbmQpIiBzdHlsZT0iIiBjbGFzcz0iZWRnZS10aGlja25lc3Mtbm9ybWFsIGVkZ2UtcGF0dGVybi1zb2xpZCBlZGdlLXRoaWNrbmVzcy1ub3JtYWwgZWRnZS1wYXR0ZXJuLXNvbGlkIGZsb3djaGFydC1saW5rIiBpZD0iTF9DX0MxXzIiIGQ9Ik0yMDk4Ljc2Myw4N0wyMDkyLjgyNyw5MS4xNjdDMjA4Ni44OTEsOTUuMzMzLDIwNzUuMDIsMTAzLjY2NywyMDY5LjA4NCwxMTJDMjA2My4xNDgsMTIwLjMzMywyMDYzLjE0OCwxMjguNjY3LDIwNjMuMTQ4LDEzNi4zMzNDMjA2My4xNDgsMTQ0LDIwNjMuMTQ4LDE1MSwyMDYzLjE0OCwxNTQuNUwyMDYzLjE0OCwxNTgiPjwvcGF0aD48cGF0aCBtYXJrZXItZW5kPSJ1cmwoI2dlTWVybWFpZE91dHB1dC0xNzQ1NTE2MzM2NTQ2X2Zsb3djaGFydC12Mi1wb2ludEVuZCkiIHN0eWxlPSIiIGNsYXNzPSJlZGdlLXRoaWNrbmVzcy1ub3JtYWwgZWRnZS1wYXR0ZXJuLXNvbGlkIGVkZ2UtdGhpY2tuZXNzLW5vcm1hbCBlZGdlLXBhdHRlcm4tc29saWQgZmxvd2NoYXJ0LWxpbmsiIGlkPSJMX0RfRDFfMyIgZD0iTTIzOTAuMzQ2LDg3TDIzODQuNTYzLDkxLjE2N0MyMzc4Ljc4LDk1LjMzMywyMzY3LjIxNCwxMDMuNjY3LDIzNjEuNDMxLDExMkMyMzU1LjY0OCwxMjAuMzMzLDIzNTUuNjQ4LDEyOC42NjcsMjM1NS42NDgsMTM2LjMzM0MyMzU1LjY0OCwxNDQsMjM1NS42NDgsMTUxLDIzNTUuNjQ4LDE1NC41TDIzNTUuNjQ4LDE1OCI+PC9wYXRoPjxwYXRoIG1hcmtlci1lbmQ9InVybCgjZ2VNZXJtYWlkT3V0cHV0LTE3NDU1MTYzMzY1NDZfZmxvd2NoYXJ0LXYyLXBvaW50RW5kKSIgc3R5bGU9IiIgY2xhc3M9ImVkZ2UtdGhpY2tuZXNzLW5vcm1hbCBlZGdlLXBhdHRlcm4tc29saWQgZWRnZS10aGlja25lc3Mtbm9ybWFsIGVkZ2UtcGF0dGVybi1zb2xpZCBmbG93Y2hhcnQtbGluayIgaWQ9IkxfRV9FMV80IiBkPSJNMjY4OS4xNTEsODdMMjY4My4wNDEsOTEuMTY3QzI2NzYuOTMxLDk1LjMzMywyNjY0LjcxMiwxMDMuNjY3LDI2NTguNjAyLDExMkMyNjUyLjQ5MiwxMjAuMzMzLDI2NTIuNDkyLDEyOC42NjcsMjY1Mi40OTIsMTM2LjMzM0MyNjUyLjQ5MiwxNDQsMjY1Mi40OTIsMTUxLDI2NTIuNDkyLDE1NC41TDI2NTIuNDkyLDE1OCI+PC9wYXRoPjxwYXRoIG1hcmtlci1lbmQ9InVybCgjZ2VNZXJtYWlkT3V0cHV0LTE3NDU1MTYzMzY1NDZfZmxvd2NoYXJ0LXYyLXBvaW50RW5kKSIgc3R5bGU9IiIgY2xhc3M9ImVkZ2UtdGhpY2tuZXNzLW5vcm1hbCBlZGdlLXBhdHRlcm4tc29saWQgZWRnZS10aGlja25lc3Mtbm9ybWFsIGVkZ2UtcGF0dGVybi1zb2xpZCBmbG93Y2hhcnQtbGluayIgaWQ9IkxfQV9GXzUiIGQ9Ik0xNTI4LjU3LDg3TDE1MjguNTcsOTEuMTY3QzE1MjguNTcsOTUuMzMzLDE1MjguNTcsMTAzLjY2NywxNTI4LjU3LDExMkMxNTI4LjU3LDEyMC4zMzMsMTUyOC41NywxMjguNjY3LDEzNjEuNjE2LDE0MC44ODRDMTE5NC42NjMsMTUzLjEwMSw4NjAuNzU1LDE2OS4yMDMsNjkzLjgwMSwxNzcuMjUzTDUyNi44NDcsMTg1LjMwNCI+PC9wYXRoPjxwYXRoIG1hcmtlci1lbmQ9InVybCgjZ2VNZXJtYWlkT3V0cHV0LTE3NDU1MTYzMzY1NDZfZmxvd2NoYXJ0LXYyLXBvaW50RW5kKSIgc3R5bGU9IiIgY2xhc3M9ImVkZ2UtdGhpY2tuZXNzLW5vcm1hbCBlZGdlLXBhdHRlcm4tc29saWQgZWRnZS10aGlja25lc3Mtbm9ybWFsIGVkZ2UtcGF0dGVybi1zb2xpZCBmbG93Y2hhcnQtbGluayIgaWQ9IkxfQl9GXzYiIGQ9Ik0xODM4LjQzNCw4N0wxODM4LjQzNCw5MS4xNjdDMTgzOC40MzQsOTUuMzMzLDE4MzguNDM0LDEwMy42NjcsMTgzOC40MzQsMTEyQzE4MzguNDM0LDEyMC4zMzMsMTgzOC40MzQsMTI4LjY2NywxNjE5LjgzNiwxNDEuMDIyQzE0MDEuMjM5LDE1My4zNzYsOTY0LjA0NCwxNjkuNzUzLDc0NS40NDYsMTc3Ljk0MUw1MjYuODQ5LDE4Ni4xMjkiPjwvcGF0aD48cGF0aCBtYXJrZXItZW5kPSJ1cmwoI2dlTWVybWFpZE91dHB1dC0xNzQ1NTE2MzM2NTQ2X2Zsb3djaGFydC12Mi1wb2ludEVuZCkiIHN0eWxlPSIiIGNsYXNzPSJlZGdlLXRoaWNrbmVzcy1ub3JtYWwgZWRnZS1wYXR0ZXJuLXNvbGlkIGVkZ2UtdGhpY2tuZXNzLW5vcm1hbCBlZGdlLXBhdHRlcm4tc29saWQgZmxvd2NoYXJ0LWxpbmsiIGlkPSJMX0NfRl83IiBkPSJNMjEzNy4yMjcsODdMMjEzNy4yMjcsOTEuMTY3QzIxMzcuMjI3LDk1LjMzMywyMTM3LjIyNywxMDMuNjY3LDIxMzcuMjI3LDExMkMyMTM3LjIyNywxMjAuMzMzLDIxMzcuMjI3LDEyOC42NjcsMTg2OC44MywxNDEuMTA2QzE2MDAuNDM0LDE1My41NDYsMTA2My42NDIsMTcwLjA5Miw3OTUuMjQ2LDE3OC4zNjVMNTI2Ljg1LDE4Ni42MzciPjwvcGF0aD48cGF0aCBtYXJrZXItZW5kPSJ1cmwoI2dlTWVybWFpZE91dHB1dC0xNzQ1NTE2MzM2NTQ2X2Zsb3djaGFydC12Mi1wb2ludEVuZCkiIHN0eWxlPSIiIGNsYXNzPSJlZGdlLXRoaWNrbmVzcy1ub3JtYWwgZWRnZS1wYXR0ZXJuLXNvbGlkIGVkZ2UtdGhpY2tuZXNzLW5vcm1hbCBlZGdlLXBhdHRlcm4tc29saWQgZmxvd2NoYXJ0LWxpbmsiIGlkPSJMX0RfRl84IiBkPSJNMjQyNy44Miw4N0wyNDI3LjgyLDkxLjE2N0MyNDI3LjgyLDk1LjMzMywyNDI3LjgyLDEwMy42NjcsMjQyNy44MiwxMTJDMjQyNy44MiwxMjAuMzMzLDI0MjcuODIsMTI4LjY2NywyMTEwLjk5MiwxNDEuMTY0QzE3OTQuMTY0LDE1My42NjIsMTE2MC41MDcsMTcwLjMyMyw4NDMuNjc5LDE3OC42NTRMNTI2Ljg1LDE4Ni45ODUiPjwvcGF0aD48cGF0aCBtYXJrZXItZW5kPSJ1cmwoI2dlTWVybWFpZE91dHB1dC0xNzQ1NTE2MzM2NTQ2X2Zsb3djaGFydC12Mi1wb2ludEVuZCkiIHN0eWxlPSIiIGNsYXNzPSJlZGdlLXRoaWNrbmVzcy1ub3JtYWwgZWRnZS1wYXR0ZXJuLXNvbGlkIGVkZ2UtdGhpY2tuZXNzLW5vcm1hbCBlZGdlLXBhdHRlcm4tc29saWQgZmxvd2NoYXJ0LWxpbmsiIGlkPSJMX0VfRl85IiBkPSJNMjcyNS40NTgsODdMMjcyNC45NTIsOTEuMTY3QzI3MjQuNDQ1LDk1LjMzMywyNzIzLjQzMSwxMDMuNjY3LDI3MjIuOTI1LDExMkMyNzIyLjQxOCwxMjAuMzMzLDI3MjIuNDE4LDEyOC42NjcsMjM1Ni40OSwxNDEuMjA4QzE5OTAuNTYyLDE1My43NDksMTI1OC43MDYsMTcwLjQ5Nyw4OTIuNzc4LDE3OC44NzJMNTI2Ljg1MSwxODcuMjQ2Ij48L3BhdGg+PHBhdGggbWFya2VyLWVuZD0idXJsKCNnZU1lcm1haWRPdXRwdXQtMTc0NTUxNjMzNjU0Nl9mbG93Y2hhcnQtdjItcG9pbnRFbmQpIiBtYXJrZXItc3RhcnQ9InVybCgjZ2VNZXJtYWlkT3V0cHV0LTE3NDU1MTYzMzY1NDZfZmxvd2NoYXJ0LXYyLXBvaW50U3RhcnQpIiBzdHlsZT0iIiBjbGFzcz0iZWRnZS10aGlja25lc3Mtbm9ybWFsIGVkZ2UtcGF0dGVybi1zb2xpZCBlZGdlLXRoaWNrbmVzcy1ub3JtYWwgZWRnZS1wYXR0ZXJuLXNvbGlkIGZsb3djaGFydC1saW5rIiBpZD0iTF9BX0dfMTAiIGQ9Ik0xNTczLjU2Miw4OS4xNzZMMTU3OS40MjgsOTIuOThDMTU4NS4yOTQsOTYuNzg0LDE1OTcuMDI2LDEwNC4zOTIsMTYwMi44OTIsMTEyLjM2M0MxNjA4Ljc1OCwxMjAuMzMzLDE2MDguNzU4LDEyOC42NjcsMTYwOC43NTgsMTQxLjVDMTYwOC43NTgsMTU0LjMzMywxNjA4Ljc1OCwxNzEuNjY3LDE2MDguNzU4LDE4OUMxNjA4Ljc1OCwyMDYuMzMzLDE2MDguNzU4LDIyMy42NjcsMTYwOC43NTgsMjM2LjVDMTYwOC43NTgsMjQ5LjMzMywxNjA4Ljc1OCwyNTcuNjY3LDE2MDguNzU4LDI2NkMxNjA4Ljc1OCwyNzQuMzMzLDE2MDguNzU4LDI4Mi42NjcsMTY0Ny4xLDI5NC4yNDZDMTY4NS40NDIsMzA1LjgyNiwxNzYyLjEyNywzMjAuNjUxLDE4MDAuNDY5LDMyOC4wNjRMMTgzOC44MTEsMzM1LjQ3NyI+PC9wYXRoPjxwYXRoIG1hcmtlci1lbmQ9InVybCgjZ2VNZXJtYWlkT3V0cHV0LTE3NDU1MTYzMzY1NDZfZmxvd2NoYXJ0LXYyLXBvaW50RW5kKSIgbWFya2VyLXN0YXJ0PSJ1cmwoI2dlTWVybWFpZE91dHB1dC0xNzQ1NTE2MzM2NTQ2X2Zsb3djaGFydC12Mi1wb2ludFN0YXJ0KSIgc3R5bGU9IiIgY2xhc3M9ImVkZ2UtdGhpY2tuZXNzLW5vcm1hbCBlZGdlLXBhdHRlcm4tc29saWQgZWRnZS10aGlja25lc3Mtbm9ybWFsIGVkZ2UtcGF0dGVybi1zb2xpZCBmbG93Y2hhcnQtbGluayIgaWQ9IkxfQl9HXzExIiBkPSJNMTg4MS40OTQsODkuMjQ3TDE4ODcuMDc3LDkzLjA0QzE4OTIuNjYsOTYuODMyLDE5MDMuODI2LDEwNC40MTYsMTkwOS40MDksMTEyLjM3NUMxOTE0Ljk5MiwxMjAuMzMzLDE5MTQuOTkyLDEyOC42NjcsMTkxNC45OTIsMTQxLjVDMTkxNC45OTIsMTU0LjMzMywxOTE0Ljk5MiwxNzEuNjY3LDE5MTQuOTkyLDE4OUMxOTE0Ljk5MiwyMDYuMzMzLDE5MTQuOTkyLDIyMy42NjcsMTkxNC45OTIsMjM2LjVDMTkxNC45OTIsMjQ5LjMzMywxOTE0Ljk5MiwyNTcuNjY3LDE5MTQuOTkyLDI2NkMxOTE0Ljk5MiwyNzQuMzMzLDE5MTQuOTkyLDI4Mi42NjcsMTkxNy4xNDEsMjkyLjM3OEMxOTE5LjI5LDMwMi4wOSwxOTIzLjU4NywzMTMuMTgsMTkyNS43MzYsMzE4LjcyNUwxOTI3Ljg4NSwzMjQuMjciPjwvcGF0aD48cGF0aCBtYXJrZXItZW5kPSJ1cmwoI2dlTWVybWFpZE91dHB1dC0xNzQ1NTE2MzM2NTQ2X2Zsb3djaGFydC12Mi1wb2ludEVuZCkiIG1hcmtlci1zdGFydD0idXJsKCNnZU1lcm1haWRPdXRwdXQtMTc0NTUxNjMzNjU0Nl9mbG93Y2hhcnQtdjItcG9pbnRTdGFydCkiIHN0eWxlPSIiIGNsYXNzPSJlZGdlLXRoaWNrbmVzcy1ub3JtYWwgZWRnZS1wYXR0ZXJuLXNvbGlkIGVkZ2UtdGhpY2tuZXNzLW5vcm1hbCBlZGdlLXBhdHRlcm4tc29saWQgZmxvd2NoYXJ0LWxpbmsiIGlkPSJMX0NfR18xMiIgZD0iTTIxNzguOTY0LDg5LjI5OEwyMTg0LjM1NCw5My4wODJDMjE4OS43NDQsOTYuODY1LDIyMDAuNTI0LDEwNC40MzMsMjIwNS45MTUsMTEyLjM4M0MyMjExLjMwNSwxMjAuMzMzLDIyMTEuMzA1LDEyOC42NjcsMjIxMS4zMDUsMTQxLjVDMjIxMS4zMDUsMTU0LjMzMywyMjExLjMwNSwxNzEuNjY3LDIyMTEuMzA1LDE4OUMyMjExLjMwNSwyMDYuMzMzLDIyMTEuMzA1LDIyMy42NjcsMjIxMS4zMDUsMjM2LjVDMjIxMS4zMDUsMjQ5LjMzMywyMjExLjMwNSwyNTcuNjY3LDIyMTEuMzA1LDI2NkMyMjExLjMwNSwyNzQuMzMzLDIyMTEuMzA1LDI4Mi42NjcsMjE4Mi44NzcsMjkzLjUzNEMyMTU0LjQ1LDMwNC40MDIsMjA5Ny41OTYsMzE3LjgwMywyMDY5LjE2OCwzMjQuNTA0TDIwNDAuNzQxLDMzMS4yMDUiPjwvcGF0aD48cGF0aCBtYXJrZXItZW5kPSJ1cmwoI2dlTWVybWFpZE91dHB1dC0xNzQ1NTE2MzM2NTQ2X2Zsb3djaGFydC12Mi1wb2ludEVuZCkiIG1hcmtlci1zdGFydD0idXJsKCNnZU1lcm1haWRPdXRwdXQtMTc0NTUxNjMzNjU0Nl9mbG93Y2hhcnQtdjItcG9pbnRTdGFydCkiIHN0eWxlPSIiIGNsYXNzPSJlZGdlLXRoaWNrbmVzcy1ub3JtYWwgZWRnZS1wYXR0ZXJuLXNvbGlkIGVkZ2UtdGhpY2tuZXNzLW5vcm1hbCBlZGdlLXBhdHRlcm4tc29saWQgZmxvd2NoYXJ0LWxpbmsiIGlkPSJMX0RfR18xMyIgZD0iTTI0NjguNTQsODkuMzM4TDI0NzMuNzgyLDkzLjExNUMyNDc5LjAyNCw5Ni44OTIsMjQ4OS41MDgsMTA0LjQ0NiwyNDk0Ljc1LDExMi4zOUMyNDk5Ljk5MiwxMjAuMzMzLDI0OTkuOTkyLDEyOC42NjcsMjQ5OS45OTIsMTQxLjVDMjQ5OS45OTIsMTU0LjMzMywyNDk5Ljk5MiwxNzEuNjY3LDI0OTkuOTkyLDE4OUMyNDk5Ljk5MiwyMDYuMzMzLDI0OTkuOTkyLDIyMy42NjcsMjQ5OS45OTIsMjM2LjVDMjQ5OS45OTIsMjQ5LjMzMywyNDk5Ljk5MiwyNTcuNjY3LDI0OTkuOTkyLDI2NkMyNDk5Ljk5MiwyNzQuMzMzLDI0OTkuOTkyLDI4Mi42NjcsMjQyMy40NjQsMjk1LjU3NkMyMzQ2LjkzNSwzMDguNDg2LDIxOTMuODc5LDMyNS45NzIsMjExNy4zNSwzMzQuNzE1TDIwNDAuODIyLDM0My40NTgiPjwvcGF0aD48cGF0aCBtYXJrZXItZW5kPSJ1cmwoI2dlTWVybWFpZE91dHB1dC0xNzQ1NTE2MzM2NTQ2X2Zsb3djaGFydC12Mi1wb2ludEVuZCkiIG1hcmtlci1zdGFydD0idXJsKCNnZU1lcm1haWRPdXRwdXQtMTc0NTUxNjMzNjU0Nl9mbG93Y2hhcnQtdjItcG9pbnRTdGFydCkiIHN0eWxlPSIiIGNsYXNzPSJlZGdlLXRoaWNrbmVzcy1ub3JtYWwgZWRnZS1wYXR0ZXJuLXNvbGlkIGVkZ2UtdGhpY2tuZXNzLW5vcm1hbCBlZGdlLXBhdHRlcm4tc29saWQgZmxvd2NoYXJ0LWxpbmsiIGlkPSJMX0VfR18xNCIgZD0iTTI3NzEuNjM4LDg5LjI1NEwyNzc3LjE5Nyw5My4wNDVDMjc4Mi43NTYsOTYuODM2LDI3OTMuODc0LDEwNC40MTgsMjc5OS40MzMsMTEyLjM3NkMyODA0Ljk5MiwxMjAuMzMzLDI4MDQuOTkyLDEyOC42NjcsMjgwNC45OTIsMTQxLjVDMjgwNC45OTIsMTU0LjMzMywyODA0Ljk5MiwxNzEuNjY3LDI4MDQuOTkyLDE4OUMyODA0Ljk5MiwyMDYuMzMzLDI4MDQuOTkyLDIyMy42NjcsMjgwNC45OTIsMjM2LjVDMjgwNC45OTIsMjQ5LjMzMywyODA0Ljk5MiwyNTcuNjY3LDI4MDQuOTkyLDI2NkMyODA0Ljk5MiwyNzQuMzMzLDI4MDQuOTkyLDI4Mi42NjcsMjY3Ny42MzMsMjk2LjI1NEMyNTUwLjI3NCwzMDkuODQyLDIyOTUuNTU1LDMyOC42ODQsMjE2OC4xOTYsMzM4LjEwNUwyMDQwLjgzNywzNDcuNTI2Ij48L3BhdGg+PHBhdGggbWFya2VyLWVuZD0idXJsKCNnZU1lcm1haWRPdXRwdXQtMTc0NTUxNjMzNjU0Nl9mbG93Y2hhcnQtdjItcG9pbnRFbmQpIiBtYXJrZXItc3RhcnQ9InVybCgjZ2VNZXJtYWlkT3V0cHV0LTE3NDU1MTYzMzY1NDZfZmxvd2NoYXJ0LXYyLXBvaW50U3RhcnQpIiBzdHlsZT0iIiBjbGFzcz0iZWRnZS10aGlja25lc3Mtbm9ybWFsIGVkZ2UtcGF0dGVybi1zb2xpZCBlZGdlLXRoaWNrbmVzcy1ub3JtYWwgZWRnZS1wYXR0ZXJuLXNvbGlkIGZsb3djaGFydC1saW5rIiBpZD0iTF9GX0hfMTUiIGQ9Ik0zNzMuNjAxLDIwMC44MDlMMzMwLjE1MSwyMDcuNTA4QzI4Ni43LDIxNC4yMDYsMTk5Ljc5OSwyMjcuNjAzLDE1Ni4zNDksMjM4LjQ2OEMxMTIuODk4LDI0OS4zMzMsMTEyLjg5OCwyNTcuNjY3LDExMi44OTgsMjY2QzExMi44OTgsMjc0LjMzMywxMTIuODk4LDI4Mi42NjcsMTEyLjg5OCwyOTIuMzMzQzExMi44OTgsMzAyLDExMi44OTgsMzEzLDExMi44OTgsMzE4LjVMMTEyLjg5OCwzMjQiPjwvcGF0aD48cGF0aCBtYXJrZXItZW5kPSJ1cmwoI2dlTWVybWFpZE91dHB1dC0xNzQ1NTE2MzM2NTQ2X2Zsb3djaGFydC12Mi1wb2ludEVuZCkiIG1hcmtlci1zdGFydD0idXJsKCNnZU1lcm1haWRPdXRwdXQtMTc0NTUxNjMzNjU0Nl9mbG93Y2hhcnQtdjItcG9pbnRTdGFydCkiIHN0eWxlPSIiIGNsYXNzPSJlZGdlLXRoaWNrbmVzcy1ub3JtYWwgZWRnZS1wYXR0ZXJuLXNvbGlkIGVkZ2UtdGhpY2tuZXNzLW5vcm1hbCBlZGdlLXBhdHRlcm4tc29saWQgZmxvd2NoYXJ0LWxpbmsiIGlkPSJMX0ZfSV8xNiIgZD0iTTUyNi44MDUsMjAwLjgwOUw1NzAuMjU1LDIwNy41MDhDNjEzLjcwNiwyMTQuMjA2LDcwMC42MDcsMjI3LjYwMyw3NDQuMDU3LDIzOC40NjhDNzg3LjUwOCwyNDkuMzMzLDc4Ny41MDgsMjU3LjY2Nyw3ODcuNTA4LDI2NkM3ODcuNTA4LDI3NC4zMzMsNzg3LjUwOCwyODIuNjY3LDc4Ny41MDgsMjkyLjMzM0M3ODcuNTA4LDMwMiw3ODcuNTA4LDMxMyw3ODcuNTA4LDMxOC41TDc4Ny41MDgsMzI0Ij48L3BhdGg+PHBhdGggbWFya2VyLWVuZD0idXJsKCNnZU1lcm1haWRPdXRwdXQtMTc0NTUxNjMzNjU0Nl9mbG93Y2hhcnQtdjItcG9pbnRFbmQpIiBtYXJrZXItc3RhcnQ9InVybCgjZ2VNZXJtYWlkT3V0cHV0LTE3NDU1MTYzMzY1NDZfZmxvd2NoYXJ0LXYyLXBvaW50U3RhcnQpIiBzdHlsZT0iIiBjbGFzcz0iZWRnZS10aGlja25lc3Mtbm9ybWFsIGVkZ2UtcGF0dGVybi1zb2xpZCBlZGdlLXRoaWNrbmVzcy1ub3JtYWwgZWRnZS1wYXR0ZXJuLXNvbGlkIGZsb3djaGFydC1saW5rIiBpZD0iTF9HX0pfMTciIGQ9Ik0xOTM5Ljc5MywzODZMMTkzOS43OTMsMzkxLjVDMTkzOS43OTMsMzk3LDE5MzkuNzkzLDQwOCwxOTM5Ljc5Myw0MTcuNjY3QzE5MzkuNzkzLDQyNy4zMzMsMTkzOS43OTMsNDM1LjY2NywxOTM5Ljc5Myw0NDRDMTkzOS43OTMsNDUyLjMzMywxOTM5Ljc5Myw0NjAuNjY3LDE5MTYuODE5LDQ3MC4yNDRDMTg5My44NDYsNDc5LjgyMiwxODQ3Ljg5OSw0OTAuNjQzLDE4MjQuOTI2LDQ5Ni4wNTRMMTgwMS45NTIsNTAxLjQ2NSI+PC9wYXRoPjxwYXRoIG1hcmtlci1lbmQ9InVybCgjZ2VNZXJtYWlkT3V0cHV0LTE3NDU1MTYzMzY1NDZfZmxvd2NoYXJ0LXYyLXBvaW50RW5kKSIgbWFya2VyLXN0YXJ0PSJ1cmwoI2dlTWVybWFpZE91dHB1dC0xNzQ1NTE2MzM2NTQ2X2Zsb3djaGFydC12Mi1wb2ludFN0YXJ0KSIgc3R5bGU9IiIgY2xhc3M9ImVkZ2UtdGhpY2tuZXNzLW5vcm1hbCBlZGdlLXBhdHRlcm4tc29saWQgZWRnZS10aGlja25lc3Mtbm9ybWFsIGVkZ2UtcGF0dGVybi1zb2xpZCBmbG93Y2hhcnQtbGluayIgaWQ9IkxfSV9KXzE4IiBkPSJNNzg3LjUwOCwzODZMNzg3LjUwOCwzOTEuNUM3ODcuNTA4LDM5Nyw3ODcuNTA4LDQwOCw3ODcuNTA4LDQxNy42NjdDNzg3LjUwOCw0MjcuMzMzLDc4Ny41MDgsNDM1LjY2Nyw3ODcuNTA4LDQ0NEM3ODcuNTA4LDQ1Mi4zMzMsNzg3LjUwOCw0NjAuNjY3LDkxMS45MzUsNDczLjg3N0MxMDM2LjM2Miw0ODcuMDg3LDEyODUuMjE1LDUwNS4xNzQsMTQwOS42NDIsNTE0LjIxOEwxNTM0LjA2OSw1MjMuMjYxIj48L3BhdGg+PC9nPjxnIGNsYXNzPSJlZGdlTGFiZWxzIj48Zz48cmVjdCBzdHlsZT0ic3Ryb2tlOiBub25lIiBjbGFzcz0iYmFja2dyb3VuZCI+PC9yZWN0PjwvZz48Zz48cmVjdCBzdHlsZT0ic3Ryb2tlOiBub25lIiBjbGFzcz0iYmFja2dyb3VuZCI+PC9yZWN0PjwvZz48Zz48cmVjdCBzdHlsZT0ic3Ryb2tlOiBub25lIiBjbGFzcz0iYmFja2dyb3VuZCI+PC9yZWN0PjwvZz48Zz48cmVjdCBzdHlsZT0ic3Ryb2tlOiBub25lIiBjbGFzcz0iYmFja2dyb3VuZCI+PC9yZWN0PjwvZz48Zz48cmVjdCBzdHlsZT0ic3Ryb2tlOiBub25lIiBjbGFzcz0iYmFja2dyb3VuZCI+PC9yZWN0PjwvZz48Zz48cmVjdCBzdHlsZT0ic3Ryb2tlOiBub25lIiBjbGFzcz0iYmFja2dyb3VuZCI+PC9yZWN0PjwvZz48Zz48cmVjdCBzdHlsZT0ic3Ryb2tlOiBub25lIiBjbGFzcz0iYmFja2dyb3VuZCI+PC9yZWN0PjwvZz48Zz48cmVjdCBzdHlsZT0ic3Ryb2tlOiBub25lIiBjbGFzcz0iYmFja2dyb3VuZCI+PC9yZWN0PjwvZz48Zz48cmVjdCBzdHlsZT0ic3Ryb2tlOiBub25lIiBjbGFzcz0iYmFja2dyb3VuZCI+PC9yZWN0PjwvZz48Zz48cmVjdCBzdHlsZT0ic3Ryb2tlOiBub25lIiBjbGFzcz0iYmFja2dyb3VuZCI+PC9yZWN0PjwvZz48Zz48cmVjdCBzdHlsZT0ic3Ryb2tlOiBub25lIiBjbGFzcz0iYmFja2dyb3VuZCI+PC9yZWN0PjwvZz48Zz48cmVjdCBzdHlsZT0ic3Ryb2tlOiBub25lIiBjbGFzcz0iYmFja2dyb3VuZCI+PC9yZWN0PjwvZz48Zz48cmVjdCBzdHlsZT0ic3Ryb2tlOiBub25lIiBjbGFzcz0iYmFja2dyb3VuZCI+PC9yZWN0PjwvZz48Zz48cmVjdCBzdHlsZT0ic3Ryb2tlOiBub25lIiBjbGFzcz0iYmFja2dyb3VuZCI+PC9yZWN0PjwvZz48Zz48cmVjdCBzdHlsZT0ic3Ryb2tlOiBub25lIiBjbGFzcz0iYmFja2dyb3VuZCI+PC9yZWN0PjwvZz48Zz48cmVjdCBzdHlsZT0ic3Ryb2tlOiBub25lIiBjbGFzcz0iYmFja2dyb3VuZCI+PC9yZWN0PjwvZz48Zz48cmVjdCBzdHlsZT0ic3Ryb2tlOiBub25lIiBjbGFzcz0iYmFja2dyb3VuZCI+PC9yZWN0PjwvZz48Zz48cmVjdCBzdHlsZT0ic3Ryb2tlOiBub25lIiBjbGFzcz0iYmFja2dyb3VuZCI+PC9yZWN0PjwvZz48Zz48cmVjdCBzdHlsZT0ic3Ryb2tlOiBub25lIiBjbGFzcz0iYmFja2dyb3VuZCI+PC9yZWN0PjwvZz48ZyBjbGFzcz0iZWRnZUxhYmVsIj48ZyB0cmFuc2Zvcm09InRyYW5zbGF0ZSgwLCAwKSIgY2xhc3M9ImxhYmVsIj48dGV4dCB5PSItMTAuMSI+PHRzcGFuIGR5PSIxLjFlbSIgeT0iLTAuMWVtIiB4PSIwIiBjbGFzcz0idGV4dC1vdXRlci10c3BhbiI+PC90c3Bhbj48L3RleHQ+PC9nPjwvZz48ZyBjbGFzcz0iZWRnZUxhYmVsIj48ZyB0cmFuc2Zvcm09InRyYW5zbGF0ZSgwLCAwKSIgY2xhc3M9ImxhYmVsIj48dGV4dCB5PSItMTAuMSI+PHRzcGFuIGR5PSIxLjFlbSIgeT0iLTAuMWVtIiB4PSIwIiBjbGFzcz0idGV4dC1vdXRlci10c3BhbiI+PC90c3Bhbj48L3RleHQ+PC9nPjwvZz48ZyBjbGFzcz0iZWRnZUxhYmVsIj48ZyB0cmFuc2Zvcm09InRyYW5zbGF0ZSgwLCAwKSIgY2xhc3M9ImxhYmVsIj48dGV4dCB5PSItMTAuMSI+PHRzcGFuIGR5PSIxLjFlbSIgeT0iLTAuMWVtIiB4PSIwIiBjbGFzcz0idGV4dC1vdXRlci10c3BhbiI+PC90c3Bhbj48L3RleHQ+PC9nPjwvZz48ZyBjbGFzcz0iZWRnZUxhYmVsIj48ZyB0cmFuc2Zvcm09InRyYW5zbGF0ZSgwLCAwKSIgY2xhc3M9ImxhYmVsIj48dGV4dCB5PSItMTAuMSI+PHRzcGFuIGR5PSIxLjFlbSIgeT0iLTAuMWVtIiB4PSIwIiBjbGFzcz0idGV4dC1vdXRlci10c3BhbiI+PC90c3Bhbj48L3RleHQ+PC9nPjwvZz48ZyBjbGFzcz0iZWRnZUxhYmVsIj48ZyB0cmFuc2Zvcm09InRyYW5zbGF0ZSgwLCAwKSIgY2xhc3M9ImxhYmVsIj48dGV4dCB5PSItMTAuMSI+PHRzcGFuIGR5PSIxLjFlbSIgeT0iLTAuMWVtIiB4PSIwIiBjbGFzcz0idGV4dC1vdXRlci10c3BhbiI+PC90c3Bhbj48L3RleHQ+PC9nPjwvZz48ZyBjbGFzcz0iZWRnZUxhYmVsIj48ZyB0cmFuc2Zvcm09InRyYW5zbGF0ZSgwLCAwKSIgY2xhc3M9ImxhYmVsIj48dGV4dCB5PSItMTAuMSI+PHRzcGFuIGR5PSIxLjFlbSIgeT0iLTAuMWVtIiB4PSIwIiBjbGFzcz0idGV4dC1vdXRlci10c3BhbiI+PC90c3Bhbj48L3RleHQ+PC9nPjwvZz48ZyBjbGFzcz0iZWRnZUxhYmVsIj48ZyB0cmFuc2Zvcm09InRyYW5zbGF0ZSgwLCAwKSIgY2xhc3M9ImxhYmVsIj48dGV4dCB5PSItMTAuMSI+PHRzcGFuIGR5PSIxLjFlbSIgeT0iLTAuMWVtIiB4PSIwIiBjbGFzcz0idGV4dC1vdXRlci10c3BhbiI+PC90c3Bhbj48L3RleHQ+PC9nPjwvZz48ZyBjbGFzcz0iZWRnZUxhYmVsIj48ZyB0cmFuc2Zvcm09InRyYW5zbGF0ZSgwLCAwKSIgY2xhc3M9ImxhYmVsIj48dGV4dCB5PSItMTAuMSI+PHRzcGFuIGR5PSIxLjFlbSIgeT0iLTAuMWVtIiB4PSIwIiBjbGFzcz0idGV4dC1vdXRlci10c3BhbiI+PC90c3Bhbj48L3RleHQ+PC9nPjwvZz48ZyBjbGFzcz0iZWRnZUxhYmVsIj48ZyB0cmFuc2Zvcm09InRyYW5zbGF0ZSgwLCAwKSIgY2xhc3M9ImxhYmVsIj48dGV4dCB5PSItMTAuMSI+PHRzcGFuIGR5PSIxLjFlbSIgeT0iLTAuMWVtIiB4PSIwIiBjbGFzcz0idGV4dC1vdXRlci10c3BhbiI+PC90c3Bhbj48L3RleHQ+PC9nPjwvZz48ZyBjbGFzcz0iZWRnZUxhYmVsIj48ZyB0cmFuc2Zvcm09InRyYW5zbGF0ZSgwLCAwKSIgY2xhc3M9ImxhYmVsIj48dGV4dCB5PSItMTAuMSI+PHRzcGFuIGR5PSIxLjFlbSIgeT0iLTAuMWVtIiB4PSIwIiBjbGFzcz0idGV4dC1vdXRlci10c3BhbiI+PC90c3Bhbj48L3RleHQ+PC9nPjwvZz48ZyBjbGFzcz0iZWRnZUxhYmVsIj48ZyB0cmFuc2Zvcm09InRyYW5zbGF0ZSgwLCAwKSIgY2xhc3M9ImxhYmVsIj48dGV4dCB5PSItMTAuMSI+PHRzcGFuIGR5PSIxLjFlbSIgeT0iLTAuMWVtIiB4PSIwIiBjbGFzcz0idGV4dC1vdXRlci10c3BhbiI+PC90c3Bhbj48L3RleHQ+PC9nPjwvZz48ZyBjbGFzcz0iZWRnZUxhYmVsIj48ZyB0cmFuc2Zvcm09InRyYW5zbGF0ZSgwLCAwKSIgY2xhc3M9ImxhYmVsIj48dGV4dCB5PSItMTAuMSI+PHRzcGFuIGR5PSIxLjFlbSIgeT0iLTAuMWVtIiB4PSIwIiBjbGFzcz0idGV4dC1vdXRlci10c3BhbiI+PC90c3Bhbj48L3RleHQ+PC9nPjwvZz48ZyBjbGFzcz0iZWRnZUxhYmVsIj48ZyB0cmFuc2Zvcm09InRyYW5zbGF0ZSgwLCAwKSIgY2xhc3M9ImxhYmVsIj48dGV4dCB5PSItMTAuMSI+PHRzcGFuIGR5PSIxLjFlbSIgeT0iLTAuMWVtIiB4PSIwIiBjbGFzcz0idGV4dC1vdXRlci10c3BhbiI+PC90c3Bhbj48L3RleHQ+PC9nPjwvZz48ZyBjbGFzcz0iZWRnZUxhYmVsIj48ZyB0cmFuc2Zvcm09InRyYW5zbGF0ZSgwLCAwKSIgY2xhc3M9ImxhYmVsIj48dGV4dCB5PSItMTAuMSI+PHRzcGFuIGR5PSIxLjFlbSIgeT0iLTAuMWVtIiB4PSIwIiBjbGFzcz0idGV4dC1vdXRlci10c3BhbiI+PC90c3Bhbj48L3RleHQ+PC9nPjwvZz48ZyBjbGFzcz0iZWRnZUxhYmVsIj48ZyB0cmFuc2Zvcm09InRyYW5zbGF0ZSgwLCAwKSIgY2xhc3M9ImxhYmVsIj48dGV4dCB5PSItMTAuMSI+PHRzcGFuIGR5PSIxLjFlbSIgeT0iLTAuMWVtIiB4PSIwIiBjbGFzcz0idGV4dC1vdXRlci10c3BhbiI+PC90c3Bhbj48L3RleHQ+PC9nPjwvZz48ZyBjbGFzcz0iZWRnZUxhYmVsIj48ZyB0cmFuc2Zvcm09InRyYW5zbGF0ZSgwLCAwKSIgY2xhc3M9ImxhYmVsIj48dGV4dCB5PSItMTAuMSI+PHRzcGFuIGR5PSIxLjFlbSIgeT0iLTAuMWVtIiB4PSIwIiBjbGFzcz0idGV4dC1vdXRlci10c3BhbiI+PC90c3Bhbj48L3RleHQ+PC9nPjwvZz48ZyBjbGFzcz0iZWRnZUxhYmVsIj48ZyB0cmFuc2Zvcm09InRyYW5zbGF0ZSgwLCAwKSIgY2xhc3M9ImxhYmVsIj48dGV4dCB5PSItMTAuMSI+PHRzcGFuIGR5PSIxLjFlbSIgeT0iLTAuMWVtIiB4PSIwIiBjbGFzcz0idGV4dC1vdXRlci10c3BhbiI+PC90c3Bhbj48L3RleHQ+PC9nPjwvZz48ZyBjbGFzcz0iZWRnZUxhYmVsIj48ZyB0cmFuc2Zvcm09InRyYW5zbGF0ZSgwLCAwKSIgY2xhc3M9ImxhYmVsIj48dGV4dCB5PSItMTAuMSI+PHRzcGFuIGR5PSIxLjFlbSIgeT0iLTAuMWVtIiB4PSIwIiBjbGFzcz0idGV4dC1vdXRlci10c3BhbiI+PC90c3Bhbj48L3RleHQ+PC9nPjwvZz48ZyBjbGFzcz0iZWRnZUxhYmVsIj48ZyB0cmFuc2Zvcm09InRyYW5zbGF0ZSgwLCAwKSIgY2xhc3M9ImxhYmVsIj48dGV4dCB5PSItMTAuMSI+PHRzcGFuIGR5PSIxLjFlbSIgeT0iLTAuMWVtIiB4PSIwIiBjbGFzcz0idGV4dC1vdXRlci10c3BhbiI+PC90c3Bhbj48L3RleHQ+PC9nPjwvZz48L2c+PGcgY2xhc3M9Im5vZGVzIj48ZyB0cmFuc2Zvcm09InRyYW5zbGF0ZSgxNTI4LjU3MDMxMjUsIDYwKSIgaWQ9ImZsb3djaGFydC1BLTAiIGNsYXNzPSJub2RlIGRlZmF1bHQiPjxyZWN0IGhlaWdodD0iNTQiIHdpZHRoPSIxNzAuMDkzNzUiIHk9Ii0yNyIgeD0iLTg1LjA0Njg3NSIgc3R5bGU9IiIgY2xhc3M9ImJhc2ljIGxhYmVsLWNvbnRhaW5lciI+PC9yZWN0PjxnIHRyYW5zZm9ybT0idHJhbnNsYXRlKC01NS4wNDY4NzUsIC0xMikiIHN0eWxlPSIiIGNsYXNzPSJsYWJlbCI+PHJlY3Q+PC9yZWN0Pjxmb3JlaWduT2JqZWN0IGhlaWdodD0iMjQiIHdpZHRoPSIxMTAuMDkzNzUiPjxkaXYgc3R5bGU9ImRpc3BsYXk6IHRhYmxlLWNlbGw7IHdoaXRlLXNwYWNlOiBub3dyYXA7IGxpbmUtaGVpZ2h0OiAxLjU7IG1heC13aWR0aDogMjAwcHg7IHRleHQtYWxpZ246IGNlbnRlcjsiIHhtbG5zPSJodHRwOi8vd3d3LnczLm9yZy8xOTk5L3hodG1sIj48c3BhbiBjbGFzcz0ibm9kZUxhYmVsIj48cD5XaW5kb3dzIENsaWVudDwvcD48L3NwYW4+PC9kaXY+PC9mb3JlaWduT2JqZWN0PjwvZz48L2c+PGcgdHJhbnNmb3JtPSJ0cmFuc2xhdGUoMTQ0OC4zODI4MTI1LCAxODkpIiBpZD0iZmxvd2NoYXJ0LUExLTEiIGNsYXNzPSJub2RlIGRlZmF1bHQiPjxyZWN0IGhlaWdodD0iNTQiIHdpZHRoPSIyNTAuNzUiIHk9Ii0yNyIgeD0iLTEyNS4zNzUiIHN0eWxlPSIiIGNsYXNzPSJiYXNpYyBsYWJlbC1jb250YWluZXIiPjwvcmVjdD48ZyB0cmFuc2Zvcm09InRyYW5zbGF0ZSgtOTUuMzc1LCAtMTIpIiBzdHlsZT0iIiBjbGFzcz0ibGFiZWwiPjxyZWN0PjwvcmVjdD48Zm9yZWlnbk9iamVjdCBoZWlnaHQ9IjI0IiB3aWR0aD0iMTkwLjc1Ij48ZGl2IHN0eWxlPSJkaXNwbGF5OiB0YWJsZS1jZWxsOyB3aGl0ZS1zcGFjZTogbm93cmFwOyBsaW5lLWhlaWdodDogMS41OyBtYXgtd2lkdGg6IDIwMHB4OyB0ZXh0LWFsaWduOiBjZW50ZXI7IiB4bWxucz0iaHR0cDovL3d3dy53My5vcmcvMTk5OS94aHRtbCI+PHNwYW4gY2xhc3M9Im5vZGVMYWJlbCI+PHA+V2luZG93cyBJbnRlZ3JhdGlvbiBMYXllcjwvcD48L3NwYW4+PC9kaXY+PC9mb3JlaWduT2JqZWN0PjwvZz48L2c+PGcgdHJhbnNmb3JtPSJ0cmFuc2xhdGUoMTgzOC40MzM1OTM3NSwgNjApIiBpZD0iZmxvd2NoYXJ0LUItMiIgY2xhc3M9Im5vZGUgZGVmYXVsdCI+PHJlY3QgaGVpZ2h0PSI1NCIgd2lkdGg9IjE1NS41NzgxMjUiIHk9Ii0yNyIgeD0iLTc3Ljc4OTA2MjUiIHN0eWxlPSIiIGNsYXNzPSJiYXNpYyBsYWJlbC1jb250YWluZXIiPjwvcmVjdD48ZyB0cmFuc2Zvcm09InRyYW5zbGF0ZSgtNDcuNzg5MDYyNSwgLTEyKSIgc3R5bGU9IiIgY2xhc3M9ImxhYmVsIj48cmVjdD48L3JlY3Q+PGZvcmVpZ25PYmplY3QgaGVpZ2h0PSIyNCIgd2lkdGg9Ijk1LjU3ODEyNSI+PGRpdiBzdHlsZT0iZGlzcGxheTogdGFibGUtY2VsbDsgd2hpdGUtc3BhY2U6IG5vd3JhcDsgbGluZS1oZWlnaHQ6IDEuNTsgbWF4LXdpZHRoOiAyMDBweDsgdGV4dC1hbGlnbjogY2VudGVyOyIgeG1sbnM9Imh0dHA6Ly93d3cudzMub3JnLzE5OTkveGh0bWwiPjxzcGFuIGNsYXNzPSJub2RlTGFiZWwiPjxwPm1hY09TIENsaWVudDwvcD48L3NwYW4+PC9kaXY+PC9mb3JlaWduT2JqZWN0PjwvZz48L2c+PGcgdHJhbnNmb3JtPSJ0cmFuc2xhdGUoMTc2MS44NzUsIDE4OSkiIGlkPSJmbG93Y2hhcnQtQjEtMyIgY2xhc3M9Im5vZGUgZGVmYXVsdCI+PHJlY3QgaGVpZ2h0PSI1NCIgd2lkdGg9IjIzNi4yMzQzNzUiIHk9Ii0yNyIgeD0iLTExOC4xMTcxODc1IiBzdHlsZT0iIiBjbGFzcz0iYmFzaWMgbGFiZWwtY29udGFpbmVyIj48L3JlY3Q+PGcgdHJhbnNmb3JtPSJ0cmFuc2xhdGUoLTg4LjExNzE4NzUsIC0xMikiIHN0eWxlPSIiIGNsYXNzPSJsYWJlbCI+PHJlY3Q+PC9yZWN0Pjxmb3JlaWduT2JqZWN0IGhlaWdodD0iMjQiIHdpZHRoPSIxNzYuMjM0Mzc1Ij48ZGl2IHN0eWxlPSJkaXNwbGF5OiB0YWJsZS1jZWxsOyB3aGl0ZS1zcGFjZTogbm93cmFwOyBsaW5lLWhlaWdodDogMS41OyBtYXgtd2lkdGg6IDIwMHB4OyB0ZXh0LWFsaWduOiBjZW50ZXI7IiB4bWxucz0iaHR0cDovL3d3dy53My5vcmcvMTk5OS94aHRtbCI+PHNwYW4gY2xhc3M9Im5vZGVMYWJlbCI+PHA+bWFjT1MgSW50ZWdyYXRpb24gTGF5ZXI8L3A+PC9zcGFuPjwvZGl2PjwvZm9yZWlnbk9iamVjdD48L2c+PC9nPjxnIHRyYW5zZm9ybT0idHJhbnNsYXRlKDIxMzcuMjI2NTYyNSwgNjApIiBpZD0iZmxvd2NoYXJ0LUMtNCIgY2xhc3M9Im5vZGUgZGVmYXVsdCI+PHJlY3QgaGVpZ2h0PSI1NCIgd2lkdGg9IjE0NS42NTYyNSIgeT0iLTI3IiB4PSItNzIuODI4MTI1IiBzdHlsZT0iIiBjbGFzcz0iYmFzaWMgbGFiZWwtY29udGFpbmVyIj48L3JlY3Q+PGcgdHJhbnNmb3JtPSJ0cmFuc2xhdGUoLTQyLjgyODEyNSwgLTEyKSIgc3R5bGU9IiIgY2xhc3M9ImxhYmVsIj48cmVjdD48L3JlY3Q+PGZvcmVpZ25PYmplY3QgaGVpZ2h0PSIyNCIgd2lkdGg9Ijg1LjY1NjI1Ij48ZGl2IHN0eWxlPSJkaXNwbGF5OiB0YWJsZS1jZWxsOyB3aGl0ZS1zcGFjZTogbm93cmFwOyBsaW5lLWhlaWdodDogMS41OyBtYXgtd2lkdGg6IDIwMHB4OyB0ZXh0LWFsaWduOiBjZW50ZXI7IiB4bWxucz0iaHR0cDovL3d3dy53My5vcmcvMTk5OS94aHRtbCI+PHNwYW4gY2xhc3M9Im5vZGVMYWJlbCI+PHA+TGludXggQ2xpZW50PC9wPjwvc3Bhbj48L2Rpdj48L2ZvcmVpZ25PYmplY3Q+PC9nPjwvZz48ZyB0cmFuc2Zvcm09InRyYW5zbGF0ZSgyMDYzLjE0ODQzNzUsIDE4OSkiIGlkPSJmbG93Y2hhcnQtQzEtNSIgY2xhc3M9Im5vZGUgZGVmYXVsdCI+PHJlY3QgaGVpZ2h0PSI1NCIgd2lkdGg9IjIyNi4zMTI1IiB5PSItMjciIHg9Ii0xMTMuMTU2MjUiIHN0eWxlPSIiIGNsYXNzPSJiYXNpYyBsYWJlbC1jb250YWluZXIiPjwvcmVjdD48ZyB0cmFuc2Zvcm09InRyYW5zbGF0ZSgtODMuMTU2MjUsIC0xMikiIHN0eWxlPSIiIGNsYXNzPSJsYWJlbCI+PHJlY3Q+PC9yZWN0Pjxmb3JlaWduT2JqZWN0IGhlaWdodD0iMjQiIHdpZHRoPSIxNjYuMzEyNSI+PGRpdiBzdHlsZT0iZGlzcGxheTogdGFibGUtY2VsbDsgd2hpdGUtc3BhY2U6IG5vd3JhcDsgbGluZS1oZWlnaHQ6IDEuNTsgbWF4LXdpZHRoOiAyMDBweDsgdGV4dC1hbGlnbjogY2VudGVyOyIgeG1sbnM9Imh0dHA6Ly93d3cudzMub3JnLzE5OTkveGh0bWwiPjxzcGFuIGNsYXNzPSJub2RlTGFiZWwiPjxwPkxpbnV4IEludGVncmF0aW9uIExheWVyPC9wPjwvc3Bhbj48L2Rpdj48L2ZvcmVpZ25PYmplY3Q+PC9nPjwvZz48ZyB0cmFuc2Zvcm09InRyYW5zbGF0ZSgyNDI3LjgyMDMxMjUsIDYwKSIgaWQ9ImZsb3djaGFydC1ELTYiIGNsYXNzPSJub2RlIGRlZmF1bHQiPjxyZWN0IGhlaWdodD0iNTQiIHdpZHRoPSIxMzguMDMxMjUiIHk9Ii0yNyIgeD0iLTY5LjAxNTYyNSIgc3R5bGU9IiIgY2xhc3M9ImJhc2ljIGxhYmVsLWNvbnRhaW5lciI+PC9yZWN0PjxnIHRyYW5zZm9ybT0idHJhbnNsYXRlKC0zOS4wMTU2MjUsIC0xMikiIHN0eWxlPSIiIGNsYXNzPSJsYWJlbCI+PHJlY3Q+PC9yZWN0Pjxmb3JlaWduT2JqZWN0IGhlaWdodD0iMjQiIHdpZHRoPSI3OC4wMzEyNSI+PGRpdiBzdHlsZT0iZGlzcGxheTogdGFibGUtY2VsbDsgd2hpdGUtc3BhY2U6IG5vd3JhcDsgbGluZS1oZWlnaHQ6IDEuNTsgbWF4LXdpZHRoOiAyMDBweDsgdGV4dC1hbGlnbjogY2VudGVyOyIgeG1sbnM9Imh0dHA6Ly93d3cudzMub3JnLzE5OTkveGh0bWwiPjxzcGFuIGNsYXNzPSJub2RlTGFiZWwiPjxwPldlYiBDbGllbnQ8L3A+PC9zcGFuPjwvZGl2PjwvZm9yZWlnbk9iamVjdD48L2c+PC9nPjxnIHRyYW5zZm9ybT0idHJhbnNsYXRlKDIzNTUuNjQ4NDM3NSwgMTg5KSIgaWQ9ImZsb3djaGFydC1EMS03IiBjbGFzcz0ibm9kZSBkZWZhdWx0Ij48cmVjdCBoZWlnaHQ9IjU0IiB3aWR0aD0iMjE4LjY4NzUiIHk9Ii0yNyIgeD0iLTEwOS4zNDM3NSIgc3R5bGU9IiIgY2xhc3M9ImJhc2ljIGxhYmVsLWNvbnRhaW5lciI+PC9yZWN0PjxnIHRyYW5zZm9ybT0idHJhbnNsYXRlKC03OS4zNDM3NSwgLTEyKSIgc3R5bGU9IiIgY2xhc3M9ImxhYmVsIj48cmVjdD48L3JlY3Q+PGZvcmVpZ25PYmplY3QgaGVpZ2h0PSIyNCIgd2lkdGg9IjE1OC42ODc1Ij48ZGl2IHN0eWxlPSJkaXNwbGF5OiB0YWJsZS1jZWxsOyB3aGl0ZS1zcGFjZTogbm93cmFwOyBsaW5lLWhlaWdodDogMS41OyBtYXgtd2lkdGg6IDIwMHB4OyB0ZXh0LWFsaWduOiBjZW50ZXI7IiB4bWxucz0iaHR0cDovL3d3dy53My5vcmcvMTk5OS94aHRtbCI+PHNwYW4gY2xhc3M9Im5vZGVMYWJlbCI+PHA+V2ViIEludGVncmF0aW9uIExheWVyPC9wPjwvc3Bhbj48L2Rpdj48L2ZvcmVpZ25PYmplY3Q+PC9nPjwvZz48ZyB0cmFuc2Zvcm09InRyYW5zbGF0ZSgyNzI4Ljc0MjE4NzUsIDYwKSIgaWQ9ImZsb3djaGFydC1FLTgiIGNsYXNzPSJub2RlIGRlZmF1bHQiPjxyZWN0IGhlaWdodD0iNTQiIHdpZHRoPSIxNTQuMzQzNzUiIHk9Ii0yNyIgeD0iLTc3LjE3MTg3NSIgc3R5bGU9IiIgY2xhc3M9ImJhc2ljIGxhYmVsLWNvbnRhaW5lciI+PC9yZWN0PjxnIHRyYW5zZm9ybT0idHJhbnNsYXRlKC00Ny4xNzE4NzUsIC0xMikiIHN0eWxlPSIiIGNsYXNzPSJsYWJlbCI+PHJlY3Q+PC9yZWN0Pjxmb3JlaWduT2JqZWN0IGhlaWdodD0iMjQiIHdpZHRoPSI5NC4zNDM3NSI+PGRpdiBzdHlsZT0iZGlzcGxheTogdGFibGUtY2VsbDsgd2hpdGUtc3BhY2U6IG5vd3JhcDsgbGluZS1oZWlnaHQ6IDEuNTsgbWF4LXdpZHRoOiAyMDBweDsgdGV4dC1hbGlnbjogY2VudGVyOyIgeG1sbnM9Imh0dHA6Ly93d3cudzMub3JnLzE5OTkveGh0bWwiPjxzcGFuIGNsYXNzPSJub2RlTGFiZWwiPjxwPk1vYmlsZSBDbGllbnQ8L3A+PC9zcGFuPjwvZGl2PjwvZm9yZWlnbk9iamVjdD48L2c+PC9nPjxnIHRyYW5zZm9ybT0idHJhbnNsYXRlKDI2NTIuNDkyMTg3NSwgMTg5KSIgaWQ9ImZsb3djaGFydC1FMS05IiBjbGFzcz0ibm9kZSBkZWZhdWx0Ij48cmVjdCBoZWlnaHQ9IjU0IiB3aWR0aD0iMjM1IiB5PSItMjciIHg9Ii0xMTcuNSIgc3R5bGU9IiIgY2xhc3M9ImJhc2ljIGxhYmVsLWNvbnRhaW5lciI+PC9yZWN0PjxnIHRyYW5zZm9ybT0idHJhbnNsYXRlKC04Ny41LCAtMTIpIiBzdHlsZT0iIiBjbGFzcz0ibGFiZWwiPjxyZWN0PjwvcmVjdD48Zm9yZWlnbk9iamVjdCBoZWlnaHQ9IjI0IiB3aWR0aD0iMTc1Ij48ZGl2IHN0eWxlPSJkaXNwbGF5OiB0YWJsZS1jZWxsOyB3aGl0ZS1zcGFjZTogbm93cmFwOyBsaW5lLWhlaWdodDogMS41OyBtYXgtd2lkdGg6IDIwMHB4OyB0ZXh0LWFsaWduOiBjZW50ZXI7IiB4bWxucz0iaHR0cDovL3d3dy53My5vcmcvMTk5OS94aHRtbCI+PHNwYW4gY2xhc3M9Im5vZGVMYWJlbCI+PHA+TW9iaWxlIEludGVncmF0aW9uIExheWVyPC9wPjwvc3Bhbj48L2Rpdj48L2ZvcmVpZ25PYmplY3Q+PC9nPjwvZz48ZyB0cmFuc2Zvcm09InRyYW5zbGF0ZSg0NTAuMjAzMTI1LCAxODkpIiBpZD0iZmxvd2NoYXJ0LUYtMTAiIGNsYXNzPSJub2RlIGRlZmF1bHQiPjxyZWN0IGhlaWdodD0iNTQiIHdpZHRoPSIxNDUuMjk2ODc1IiB5PSItMjciIHg9Ii03Mi42NDg0Mzc1IiBzdHlsZT0iIiBjbGFzcz0iYmFzaWMgbGFiZWwtY29udGFpbmVyIj48L3JlY3Q+PGcgdHJhbnNmb3JtPSJ0cmFuc2xhdGUoLTQyLjY0ODQzNzUsIC0xMikiIHN0eWxlPSIiIGNsYXNzPSJsYWJlbCI+PHJlY3Q+PC9yZWN0Pjxmb3JlaWduT2JqZWN0IGhlaWdodD0iMjQiIHdpZHRoPSI4NS4yOTY4NzUiPjxkaXYgc3R5bGU9ImRpc3BsYXk6IHRhYmxlLWNlbGw7IHdoaXRlLXNwYWNlOiBub3dyYXA7IGxpbmUtaGVpZ2h0OiAxLjU7IG1heC13aWR0aDogMjAwcHg7IHRleHQtYWxpZ246IGNlbnRlcjsiIHhtbG5zPSJodHRwOi8vd3d3LnczLm9yZy8xOTk5L3hodG1sIj48c3BhbiBjbGFzcz0ibm9kZUxhYmVsIj48cD5Db3JlIEVuZ2luZTwvcD48L3NwYW4+PC9kaXY+PC9mb3JlaWduT2JqZWN0PjwvZz48L2c+PGcgdHJhbnNmb3JtPSJ0cmFuc2xhdGUoNjgxLjI4MTI1LCAxODkpIiBpZD0iZmxvd2NoYXJ0LUYxLTExIiBjbGFzcz0ibm9kZSBkZWZhdWx0Ij48cmVjdCBoZWlnaHQ9IjU0IiB3aWR0aD0iMjE2Ljg1OTM3NSIgeT0iLTI3IiB4PSItMTA4LjQyOTY4NzUiIHN0eWxlPSIiIGNsYXNzPSJiYXNpYyBsYWJlbC1jb250YWluZXIiPjwvcmVjdD48ZyB0cmFuc2Zvcm09InRyYW5zbGF0ZSgtNzguNDI5Njg3NSwgLTEyKSIgc3R5bGU9IiIgY2xhc3M9ImxhYmVsIj48cmVjdD48L3JlY3Q+PGZvcmVpZ25PYmplY3QgaGVpZ2h0PSIyNCIgd2lkdGg9IjE1Ni44NTkzNzUiPjxkaXYgc3R5bGU9ImRpc3BsYXk6IHRhYmxlLWNlbGw7IHdoaXRlLXNwYWNlOiBub3dyYXA7IGxpbmUtaGVpZ2h0OiAxLjU7IG1heC13aWR0aDogMjAwcHg7IHRleHQtYWxpZ246IGNlbnRlcjsiIHhtbG5zPSJodHRwOi8vd3d3LnczLm9yZy8xOTk5L3hodG1sIj48c3BhbiBjbGFzcz0ibm9kZUxhYmVsIj48cD5Mb2NhbCBMYW5ndWFnZSBNb2RlbDwvcD48L3NwYW4+PC9kaXY+PC9mb3JlaWduT2JqZWN0PjwvZz48L2c+PGcgdHJhbnNmb3JtPSJ0cmFuc2xhdGUoOTMwLjIyNjU2MjUsIDE4OSkiIGlkPSJmbG93Y2hhcnQtRjItMTIiIGNsYXNzPSJub2RlIGRlZmF1bHQiPjxyZWN0IGhlaWdodD0iNTQiIHdpZHRoPSIxODEuMDMxMjUiIHk9Ii0yNyIgeD0iLTkwLjUxNTYyNSIgc3R5bGU9IiIgY2xhc3M9ImJhc2ljIGxhYmVsLWNvbnRhaW5lciI+PC9yZWN0PjxnIHRyYW5zZm9ybT0idHJhbnNsYXRlKC02MC41MTU2MjUsIC0xMikiIHN0eWxlPSIiIGNsYXNzPSJsYWJlbCI+PHJlY3Q+PC9yZWN0Pjxmb3JlaWduT2JqZWN0IGhlaWdodD0iMjQiIHdpZHRoPSIxMjEuMDMxMjUiPjxkaXYgc3R5bGU9ImRpc3BsYXk6IHRhYmxlLWNlbGw7IHdoaXRlLXNwYWNlOiBub3dyYXA7IGxpbmUtaGVpZ2h0OiAxLjU7IG1heC13aWR0aDogMjAwcHg7IHRleHQtYWxpZ246IGNlbnRlcjsiIHhtbG5zPSJodHRwOi8vd3d3LnczLm9yZy8xOTk5L3hodG1sIj48c3BhbiBjbGFzcz0ibm9kZUxhYmVsIj48cD5Db250ZXh0IE1hbmFnZXI8L3A+PC9zcGFuPjwvZGl2PjwvZm9yZWlnbk9iamVjdD48L2c+PC9nPjxnIHRyYW5zZm9ybT0idHJhbnNsYXRlKDExNTEuODc1LCAxODkpIiBpZD0iZmxvd2NoYXJ0LUYzLTEzIiBjbGFzcz0ibm9kZSBkZWZhdWx0Ij48cmVjdCBoZWlnaHQ9IjU0IiB3aWR0aD0iMTYyLjI2NTYyNSIgeT0iLTI3IiB4PSItODEuMTMyODEyNSIgc3R5bGU9IiIgY2xhc3M9ImJhc2ljIGxhYmVsLWNvbnRhaW5lciI+PC9yZWN0PjxnIHRyYW5zZm9ybT0idHJhbnNsYXRlKC01MS4xMzI4MTI1LCAtMTIpIiBzdHlsZT0iIiBjbGFzcz0ibGFiZWwiPjxyZWN0PjwvcmVjdD48Zm9yZWlnbk9iamVjdCBoZWlnaHQ9IjI0IiB3aWR0aD0iMTAyLjI2NTYyNSI+PGRpdiBzdHlsZT0iZGlzcGxheTogdGFibGUtY2VsbDsgd2hpdGUtc3BhY2U6IG5vd3JhcDsgbGluZS1oZWlnaHQ6IDEuNTsgbWF4LXdpZHRoOiAyMDBweDsgdGV4dC1hbGlnbjogY2VudGVyOyIgeG1sbnM9Imh0dHA6Ly93d3cudzMub3JnLzE5OTkveGh0bWwiPjxzcGFuIGNsYXNzPSJub2RlTGFiZWwiPjxwPlNlY3VyaXR5IExheWVyPC9wPjwvc3Bhbj48L2Rpdj48L2ZvcmVpZ25PYmplY3Q+PC9nPjwvZz48ZyB0cmFuc2Zvcm09InRyYW5zbGF0ZSgxOTM5Ljc5Mjk2ODc1LCAzNTUpIiBpZD0iZmxvd2NoYXJ0LUctMTQiIGNsYXNzPSJub2RlIGRlZmF1bHQiPjxyZWN0IGhlaWdodD0iNTQiIHdpZHRoPSIxOTQuMTA5Mzc1IiB5PSItMjciIHg9Ii05Ny4wNTQ2ODc1IiBzdHlsZT0iIiBjbGFzcz0iYmFzaWMgbGFiZWwtY29udGFpbmVyIj48L3JlY3Q+PGcgdHJhbnNmb3JtPSJ0cmFuc2xhdGUoLTY3LjA1NDY4NzUsIC0xMikiIHN0eWxlPSIiIGNsYXNzPSJsYWJlbCI+PHJlY3Q+PC9yZWN0Pjxmb3JlaWduT2JqZWN0IGhlaWdodD0iMjQiIHdpZHRoPSIxMzQuMTA5Mzc1Ij48ZGl2IHN0eWxlPSJkaXNwbGF5OiB0YWJsZS1jZWxsOyB3aGl0ZS1zcGFjZTogbm93cmFwOyBsaW5lLWhlaWdodDogMS41OyBtYXgtd2lkdGg6IDIwMHB4OyB0ZXh0LWFsaWduOiBjZW50ZXI7IiB4bWxucz0iaHR0cDovL3d3dy53My5vcmcvMTk5OS94aHRtbCI+PHNwYW4gY2xhc3M9Im5vZGVMYWJlbCI+PHA+Q2xvdWQgU3luYyBTZXJ2aWNlPC9wPjwvc3Bhbj48L2Rpdj48L2ZvcmVpZ25PYmplY3Q+PC9nPjwvZz48ZyB0cmFuc2Zvcm09InRyYW5zbGF0ZSgzMjguMTAxNTYyNSwgMzU1KSIgaWQ9ImZsb3djaGFydC1HMS0xNSIgY2xhc3M9Im5vZGUgZGVmYXVsdCI+PHJlY3QgaGVpZ2h0PSI1NCIgd2lkdGg9IjE5MC42MDkzNzUiIHk9Ii0yNyIgeD0iLTk1LjMwNDY4NzUiIHN0eWxlPSIiIGNsYXNzPSJiYXNpYyBsYWJlbC1jb250YWluZXIiPjwvcmVjdD48ZyB0cmFuc2Zvcm09InRyYW5zbGF0ZSgtNjUuMzA0Njg3NSwgLTEyKSIgc3R5bGU9IiIgY2xhc3M9ImxhYmVsIj48cmVjdD48L3JlY3Q+PGZvcmVpZ25PYmplY3QgaGVpZ2h0PSIyNCIgd2lkdGg9IjEzMC42MDkzNzUiPjxkaXYgc3R5bGU9ImRpc3BsYXk6IHRhYmxlLWNlbGw7IHdoaXRlLXNwYWNlOiBub3dyYXA7IGxpbmUtaGVpZ2h0OiAxLjU7IG1heC13aWR0aDogMjAwcHg7IHRleHQtYWxpZ246IGNlbnRlcjsiIHhtbG5zPSJodHRwOi8vd3d3LnczLm9yZy8xOTk5L3hodG1sIj48c3BhbiBjbGFzcz0ibm9kZUxhYmVsIj48cD5Vc2VyIFNldHRpbmdzIFN5bmM8L3A+PC9zcGFuPjwvZGl2PjwvZm9yZWlnbk9iamVjdD48L2c+PC9nPjxnIHRyYW5zZm9ybT0idHJhbnNsYXRlKDU1MC4xMDkzNzUsIDM1NSkiIGlkPSJmbG93Y2hhcnQtRzItMTYiIGNsYXNzPSJub2RlIGRlZmF1bHQiPjxyZWN0IGhlaWdodD0iNTQiIHdpZHRoPSIxNTMuNDA2MjUiIHk9Ii0yNyIgeD0iLTc2LjcwMzEyNSIgc3R5bGU9IiIgY2xhc3M9ImJhc2ljIGxhYmVsLWNvbnRhaW5lciI+PC9yZWN0PjxnIHRyYW5zZm9ybT0idHJhbnNsYXRlKC00Ni43MDMxMjUsIC0xMikiIHN0eWxlPSIiIGNsYXNzPSJsYWJlbCI+PHJlY3Q+PC9yZWN0Pjxmb3JlaWduT2JqZWN0IGhlaWdodD0iMjQiIHdpZHRoPSI5My40MDYyNSI+PGRpdiBzdHlsZT0iZGlzcGxheTogdGFibGUtY2VsbDsgd2hpdGUtc3BhY2U6IG5vd3JhcDsgbGluZS1oZWlnaHQ6IDEuNTsgbWF4LXdpZHRoOiAyMDBweDsgdGV4dC1hbGlnbjogY2VudGVyOyIgeG1sbnM9Imh0dHA6Ly93d3cudzMub3JnLzE5OTkveGh0bWwiPjxzcGFuIGNsYXNzPSJub2RlTGFiZWwiPjxwPkNvbnRleHQgU3luYzwvcD48L3NwYW4+PC9kaXY+PC9mb3JlaWduT2JqZWN0PjwvZz48L2c+PGcgdHJhbnNmb3JtPSJ0cmFuc2xhdGUoMTEyLjg5ODQzNzUsIDM1NSkiIGlkPSJmbG93Y2hhcnQtSC0xNyIgY2xhc3M9Im5vZGUgZGVmYXVsdCI+PHJlY3QgaGVpZ2h0PSI1NCIgd2lkdGg9IjEzOS43OTY4NzUiIHk9Ii0yNyIgeD0iLTY5Ljg5ODQzNzUiIHN0eWxlPSIiIGNsYXNzPSJiYXNpYyBsYWJlbC1jb250YWluZXIiPjwvcmVjdD48ZyB0cmFuc2Zvcm09InRyYW5zbGF0ZSgtMzkuODk4NDM3NSwgLTEyKSIgc3R5bGU9IiIgY2xhc3M9ImxhYmVsIj48cmVjdD48L3JlY3Q+PGZvcmVpZ25PYmplY3QgaGVpZ2h0PSIyNCIgd2lkdGg9Ijc5Ljc5Njg3NSI+PGRpdiBzdHlsZT0iZGlzcGxheTogdGFibGUtY2VsbDsgd2hpdGUtc3BhY2U6IG5vd3JhcDsgbGluZS1oZWlnaHQ6IDEuNTsgbWF4LXdpZHRoOiAyMDBweDsgdGV4dC1hbGlnbjogY2VudGVyOyIgeG1sbnM9Imh0dHA6Ly93d3cudzMub3JnLzE5OTkveGh0bWwiPjxzcGFuIGNsYXNzPSJub2RlTGFiZWwiPjxwPk1DUCBTZXJ2ZXI8L3A+PC9zcGFuPjwvZGl2PjwvZm9yZWlnbk9iamVjdD48L2c+PC9nPjxnIHRyYW5zZm9ybT0idHJhbnNsYXRlKDEwNjYuMDYyNSwgMzU1KSIgaWQ9ImZsb3djaGFydC1IMS0xOCIgY2xhc3M9Im5vZGUgZGVmYXVsdCI+PHJlY3QgaGVpZ2h0PSI1NCIgd2lkdGg9IjIzNS43MTg3NSIgeT0iLTI3IiB4PSItMTE3Ljg1OTM3NSIgc3R5bGU9IiIgY2xhc3M9ImJhc2ljIGxhYmVsLWNvbnRhaW5lciI+PC9yZWN0PjxnIHRyYW5zZm9ybT0idHJhbnNsYXRlKC04Ny44NTkzNzUsIC0xMikiIHN0eWxlPSIiIGNsYXNzPSJsYWJlbCI+PHJlY3Q+PC9yZWN0Pjxmb3JlaWduT2JqZWN0IGhlaWdodD0iMjQiIHdpZHRoPSIxNzUuNzE4NzUiPjxkaXYgc3R5bGU9ImRpc3BsYXk6IHRhYmxlLWNlbGw7IHdoaXRlLXNwYWNlOiBub3dyYXA7IGxpbmUtaGVpZ2h0OiAxLjU7IG1heC13aWR0aDogMjAwcHg7IHRleHQtYWxpZ246IGNlbnRlcjsiIHhtbG5zPSJodHRwOi8vd3d3LnczLm9yZy8xOTk5L3hodG1sIj48c3BhbiBjbGFzcz0ibm9kZUxhYmVsIj48cD5BZHZhbmNlZCBBSSBDYXBhYmlsaXRpZXM8L3A+PC9zcGFuPjwvZGl2PjwvZm9yZWlnbk9iamVjdD48L2c+PC9nPjxnIHRyYW5zZm9ybT0idHJhbnNsYXRlKDc4Ny41MDc4MTI1LCAzNTUpIiBpZD0iZmxvd2NoYXJ0LUktMTkiIGNsYXNzPSJub2RlIGRlZmF1bHQiPjxyZWN0IGhlaWdodD0iNTQiIHdpZHRoPSIyMjEuMzkwNjI1IiB5PSItMjciIHg9Ii0xMTAuNjk1MzEyNSIgc3R5bGU9IiIgY2xhc3M9ImJhc2ljIGxhYmVsLWNvbnRhaW5lciI+PC9yZWN0PjxnIHRyYW5zZm9ybT0idHJhbnNsYXRlKC04MC42OTUzMTI1LCAtMTIpIiBzdHlsZT0iIiBjbGFzcz0ibGFiZWwiPjxyZWN0PjwvcmVjdD48Zm9yZWlnbk9iamVjdCBoZWlnaHQ9IjI0IiB3aWR0aD0iMTYxLjM5MDYyNSI+PGRpdiBzdHlsZT0iZGlzcGxheTogdGFibGUtY2VsbDsgd2hpdGUtc3BhY2U6IG5vd3JhcDsgbGluZS1oZWlnaHQ6IDEuNTsgbWF4LXdpZHRoOiAyMDBweDsgdGV4dC1hbGlnbjogY2VudGVyOyIgeG1sbnM9Imh0dHA6Ly93d3cudzMub3JnLzE5OTkveGh0bWwiPjxzcGFuIGNsYXNzPSJub2RlTGFiZWwiPjxwPkV4dGVuc2lvbiBNYXJrZXRwbGFjZTwvcD48L3NwYW4+PC9kaXY+PC9mb3JlaWduT2JqZWN0PjwvZz48L2c+PGcgdHJhbnNmb3JtPSJ0cmFuc2xhdGUoMjQ0OC45Mzc1LCAzNTUpIiBpZD0iZmxvd2NoYXJ0LUkxLTIwIiBjbGFzcz0ibm9kZSBkZWZhdWx0Ij48cmVjdCBoZWlnaHQ9IjU0IiB3aWR0aD0iMjQ1LjY1NjI1IiB5PSItMjciIHg9Ii0xMjIuODI4MTI1IiBzdHlsZT0iIiBjbGFzcz0iYmFzaWMgbGFiZWwtY29udGFpbmVyIj48L3JlY3Q+PGcgdHJhbnNmb3JtPSJ0cmFuc2xhdGUoLTkyLjgyODEyNSwgLTEyKSIgc3R5bGU9IiIgY2xhc3M9ImxhYmVsIj48cmVjdD48L3JlY3Q+PGZvcmVpZ25PYmplY3QgaGVpZ2h0PSIyNCIgd2lkdGg9IjE4NS42NTYyNSI+PGRpdiBzdHlsZT0iZGlzcGxheTogdGFibGUtY2VsbDsgd2hpdGUtc3BhY2U6IG5vd3JhcDsgbGluZS1oZWlnaHQ6IDEuNTsgbWF4LXdpZHRoOiAyMDBweDsgdGV4dC1hbGlnbjogY2VudGVyOyIgeG1sbnM9Imh0dHA6Ly93d3cudzMub3JnLzE5OTkveGh0bWwiPjxzcGFuIGNsYXNzPSJub2RlTGFiZWwiPjxwPkNyb3NzLVBsYXRmb3JtIEV4dGVuc2lvbnM8L3A+PC9zcGFuPjwvZGl2PjwvZm9yZWlnbk9iamVjdD48L2c+PC9nPjxnIHRyYW5zZm9ybT0idHJhbnNsYXRlKDI3NTEuNzY1NjI1LCAzNTUpIiBpZD0iZmxvd2NoYXJ0LUkyLTIxIiBjbGFzcz0ibm9kZSBkZWZhdWx0Ij48cmVjdCBoZWlnaHQ9Ijc4IiB3aWR0aD0iMjYwIiB5PSItMzkiIHg9Ii0xMzAiIHN0eWxlPSIiIGNsYXNzPSJiYXNpYyBsYWJlbC1jb250YWluZXIiPjwvcmVjdD48ZyB0cmFuc2Zvcm09InRyYW5zbGF0ZSgtMTAwLCAtMjQpIiBzdHlsZT0iIiBjbGFzcz0ibGFiZWwiPjxyZWN0PjwvcmVjdD48Zm9yZWlnbk9iamVjdCBoZWlnaHQ9IjQ4IiB3aWR0aD0iMjAwIj48ZGl2IHN0eWxlPSJkaXNwbGF5OiB0YWJsZTsgd2hpdGUtc3BhY2U6IGJyZWFrLXNwYWNlczsgbGluZS1oZWlnaHQ6IDEuNTsgbWF4LXdpZHRoOiAyMDBweDsgdGV4dC1hbGlnbjogY2VudGVyOyB3aWR0aDogMjAwcHg7IiB4bWxucz0iaHR0cDovL3d3dy53My5vcmcvMTk5OS94aHRtbCI+PHNwYW4gY2xhc3M9Im5vZGVMYWJlbCI+PHA+UGxhdGZvcm0tU3BlY2lmaWMgRXh0ZW5zaW9uczwvcD48L3NwYW4+PC9kaXY+PC9mb3JlaWduT2JqZWN0PjwvZz48L2c+PGcgdHJhbnNmb3JtPSJ0cmFuc2xhdGUoMTY2OC4wNTg1OTM3NSwgNTMzKSIgaWQ9ImZsb3djaGFydC1KLTIyIiBjbGFzcz0ibm9kZSBkZWZhdWx0Ij48cmVjdCBoZWlnaHQ9Ijc4IiB3aWR0aD0iMjYwIiB5PSItMzkiIHg9Ii0xMzAiIHN0eWxlPSIiIGNsYXNzPSJiYXNpYyBsYWJlbC1jb250YWluZXIiPjwvcmVjdD48ZyB0cmFuc2Zvcm09InRyYW5zbGF0ZSgtMTAwLCAtMjQpIiBzdHlsZT0iIiBjbGFzcz0ibGFiZWwiPjxyZWN0PjwvcmVjdD48Zm9yZWlnbk9iamVjdCBoZWlnaHQ9IjQ4IiB3aWR0aD0iMjAwIj48ZGl2IHN0eWxlPSJkaXNwbGF5OiB0YWJsZTsgd2hpdGUtc3BhY2U6IGJyZWFrLXNwYWNlczsgbGluZS1oZWlnaHQ6IDEuNTsgbWF4LXdpZHRoOiAyMDBweDsgdGV4dC1hbGlnbjogY2VudGVyOyB3aWR0aDogMjAwcHg7IiB4bWxucz0iaHR0cDovL3d3dy53My5vcmcvMTk5OS94aHRtbCI+PHNwYW4gY2xhc3M9Im5vZGVMYWJlbCI+PHA+RW50ZXJwcmlzZSBNYW5hZ2VtZW50IENvbnNvbGU8L3A+PC9zcGFuPjwvZGl2PjwvZm9yZWlnbk9iamVjdD48L2c+PC9nPjxnIHRyYW5zZm9ybT0idHJhbnNsYXRlKDE5NzguMDU4NTkzNzUsIDUzMykiIGlkPSJmbG93Y2hhcnQtSjEtMjMiIGNsYXNzPSJub2RlIGRlZmF1bHQiPjxyZWN0IGhlaWdodD0iNzgiIHdpZHRoPSIyNjAiIHk9Ii0zOSIgeD0iLTEzMCIgc3R5bGU9IiIgY2xhc3M9ImJhc2ljIGxhYmVsLWNvbnRhaW5lciI+PC9yZWN0PjxnIHRyYW5zZm9ybT0idHJhbnNsYXRlKC0xMDAsIC0yNCkiIHN0eWxlPSIiIGNsYXNzPSJsYWJlbCI+PHJlY3Q+PC9yZWN0Pjxmb3JlaWduT2JqZWN0IGhlaWdodD0iNDgiIHdpZHRoPSIyMDAiPjxkaXYgc3R5bGU9ImRpc3BsYXk6IHRhYmxlOyB3aGl0ZS1zcGFjZTogYnJlYWstc3BhY2VzOyBsaW5lLWhlaWdodDogMS41OyBtYXgtd2lkdGg6IDIwMHB4OyB0ZXh0LWFsaWduOiBjZW50ZXI7IHdpZHRoOiAyMDBweDsiIHhtbG5zPSJodHRwOi8vd3d3LnczLm9yZy8xOTk5L3hodG1sIj48c3BhbiBjbGFzcz0ibm9kZUxhYmVsIj48cD5Dcm9zcy1QbGF0Zm9ybSBDb25maWd1cmF0aW9uPC9wPjwvc3Bhbj48L2Rpdj48L2ZvcmVpZ25PYmplY3Q+PC9nPjwvZz48ZyB0cmFuc2Zvcm09InRyYW5zbGF0ZSgyMjYyLjQ4MDQ2ODc1LCA1MzMpIiBpZD0iZmxvd2NoYXJ0LUoyLTI0IiBjbGFzcz0ibm9kZSBkZWZhdWx0Ij48cmVjdCBoZWlnaHQ9IjU0IiB3aWR0aD0iMjA4Ljg0Mzc1IiB5PSItMjciIHg9Ii0xMDQuNDIxODc1IiBzdHlsZT0iIiBjbGFzcz0iYmFzaWMgbGFiZWwtY29udGFpbmVyIj48L3JlY3Q+PGcgdHJhbnNmb3JtPSJ0cmFuc2xhdGUoLTc0LjQyMTg3NSwgLTEyKSIgc3R5bGU9IiIgY2xhc3M9ImxhYmVsIj48cmVjdD48L3JlY3Q+PGZvcmVpZ25PYmplY3QgaGVpZ2h0PSIyNCIgd2lkdGg9IjE0OC44NDM3NSI+PGRpdiBzdHlsZT0iZGlzcGxheTogdGFibGUtY2VsbDsgd2hpdGUtc3BhY2U6IG5vd3JhcDsgbGluZS1oZWlnaHQ6IDEuNTsgbWF4LXdpZHRoOiAyMDBweDsgdGV4dC1hbGlnbjogY2VudGVyOyIgeG1sbnM9Imh0dHA6Ly93d3cudzMub3JnLzE5OTkveGh0bWwiPjxzcGFuIGNsYXNzPSJub2RlTGFiZWwiPjxwPkxpY2Vuc2UgTWFuYWdlbWVudDwvcD48L3NwYW4+PC9kaXY+PC9mb3JlaWduT2JqZWN0PjwvZz48L2c+PGcgdHJhbnNmb3JtPSJ0cmFuc2xhdGUoMjUxOC44MDA3ODEyNSwgNTMzKSIgaWQ9ImZsb3djaGFydC1KMy0yNSIgY2xhc3M9Im5vZGUgZGVmYXVsdCI+PHJlY3QgaGVpZ2h0PSI1NCIgd2lkdGg9IjIwMy43OTY4NzUiIHk9Ii0yNyIgeD0iLTEwMS44OTg0Mzc1IiBzdHlsZT0iIiBjbGFzcz0iYmFzaWMgbGFiZWwtY29udGFpbmVyIj48L3JlY3Q+PGcgdHJhbnNmb3JtPSJ0cmFuc2xhdGUoLTcxLjg5ODQzNzUsIC0xMikiIHN0eWxlPSIiIGNsYXNzPSJsYWJlbCI+PHJlY3Q+PC9yZWN0Pjxmb3JlaWduT2JqZWN0IGhlaWdodD0iMjQiIHdpZHRoPSIxNDMuNzk2ODc1Ij48ZGl2IHN0eWxlPSJkaXNwbGF5OiB0YWJsZS1jZWxsOyB3aGl0ZS1zcGFjZTogbm93cmFwOyBsaW5lLWhlaWdodDogMS41OyBtYXgtd2lkdGg6IDIwMHB4OyB0ZXh0LWFsaWduOiBjZW50ZXI7IiB4bWxucz0iaHR0cDovL3d3dy53My5vcmcvMTk5OS94aHRtbCI+PHNwYW4gY2xhc3M9Im5vZGVMYWJlbCI+PHA+QW5hbHl0aWNzIERhc2hib2FyZDwvcD48L3NwYW4+PC9kaXY+PC9mb3JlaWduT2JqZWN0PjwvZz48L2c+PGcgdHJhbnNmb3JtPSJ0cmFuc2xhdGUoMjc5My4wODIwMzEyNSwgNTMzKSIgaWQ9ImZsb3djaGFydC1KNC0yNiIgY2xhc3M9Im5vZGUgZGVmYXVsdCI+PHJlY3QgaGVpZ2h0PSI1NCIgd2lkdGg9IjI0NC43NjU2MjUiIHk9Ii0yNyIgeD0iLTEyMi4zODI4MTI1IiBzdHlsZT0iIiBjbGFzcz0iYmFzaWMgbGFiZWwtY29udGFpbmVyIj48L3JlY3Q+PGcgdHJhbnNmb3JtPSJ0cmFuc2xhdGUoLTkyLjM4MjgxMjUsIC0xMikiIHN0eWxlPSIiIGNsYXNzPSJsYWJlbCI+PHJlY3Q+PC9yZWN0Pjxmb3JlaWduT2JqZWN0IGhlaWdodD0iMjQiIHdpZHRoPSIxODQuNzY1NjI1Ij48ZGl2IHN0eWxlPSJkaXNwbGF5OiB0YWJsZS1jZWxsOyB3aGl0ZS1zcGFjZTogbm93cmFwOyBsaW5lLWhlaWdodDogMS41OyBtYXgtd2lkdGg6IDIwMHB4OyB0ZXh0LWFsaWduOiBjZW50ZXI7IiB4bWxucz0iaHR0cDovL3d3dy53My5vcmcvMTk5OS94aHRtbCI+PHNwYW4gY2xhc3M9Im5vZGVMYWJlbCI+PHA+Q29tcGFueSBLbm93bGVkZ2UgQmFzZTwvcD48L3NwYW4+PC9kaXY+PC9mb3JlaWduT2JqZWN0PjwvZz48L2c+PC9nPjwvZz48L2c+PC9zdmc+;" vertex="1" parent="1">
            <mxGeometry width="2958.46484375" height="605" as="geometry" />
          </mxCell>
        </UserObject>
      </root>
    </mxGraphModel>
  </diagram>
</mxfile>
